<svg xmlns="http://www.w3.org/2000/svg" version="1.1" xmlns:xlink="http://www.w3.org/1999/xlink" xmlns:svgjs="http://svgjs.com/svgjs" viewBox="0 0 40 40" width="40" height="40"><title>Exported from Streamline App (https://app.streamlineicons.com)</title><g transform="matrix(1.6666666666666667,0,0,1.6666666666666667,0,0)"><path d="M 23.5,22l-1-1.934V15.5c0.042-1.778-2.081-3.363-4-5 " stroke="#000000" fill="none" stroke-width="1" stroke-linecap="round" stroke-linejoin="round"></path><path d="M 20.019,17.5l-2.551-2.607 c-0.476-0.496-1.265-0.512-1.76-0.035c-0.496,0.476-0.512,1.265-0.035,1.76c0.004,0.004,0.008,0.008,0.012,0.012L18.5,19.5V21 c0.153,0.895,0.494,1.747,1,2.5 " stroke="#000000" fill="none" stroke-width="1" stroke-linecap="round" stroke-linejoin="round"></path><path d="M 0.5,2l1,1.934V8.5c-0.042,1.778,2.081,3.363,4,5 " stroke="#000000" fill="none" stroke-width="1" stroke-linecap="round" stroke-linejoin="round"></path><path d="M 3.981,6.5l2.551,2.607 c0.476,0.496,1.265,0.512,1.76,0.035c0.496-0.476,0.512-1.265,0.035-1.76C8.324,7.378,8.32,7.374,8.316,7.37L5.5,4.5V3 c-0.153-0.895-0.494-1.747-1-2.5 " stroke="#000000" fill="none" stroke-width="1" stroke-linecap="round" stroke-linejoin="round"></path><path d="M 5.5,8.052V23c0,0.276,0.224,0.5,0.5,0.5h11 " stroke="#000000" fill="none" stroke-width="1" stroke-linecap="round" stroke-linejoin="round"></path><path d="M 11,2.5H7.5 " stroke="#000000" fill="none" stroke-width="1" stroke-linecap="round" stroke-linejoin="round"></path><path d="M 18.5,15.948V10 " stroke="#000000" fill="none" stroke-width="1" stroke-linecap="round" stroke-linejoin="round"></path><path d="M 13,15.5H7.5 " stroke="#000000" fill="none" stroke-width="1" stroke-linecap="round" stroke-linejoin="round"></path><path d="M 16.5,12.5 h-9 " stroke="#000000" fill="none" stroke-width="1" stroke-linecap="round" stroke-linejoin="round"></path><path d="M 12,18.5H7.5 " stroke="#000000" fill="none" stroke-width="1" stroke-linecap="round" stroke-linejoin="round"></path><path d="M 20.5,4.5c0,2.209-1.791,4-4,4s-4-1.791-4-4s1.791-4,4-4 " stroke="#000000" fill="none" stroke-width="1" stroke-linecap="round" stroke-linejoin="round"></path><path d="M 20.5,1.5l-3.646,3.646 c-0.195,0.196-0.512,0.196-0.707,0.001c0,0-0.001-0.001-0.001-0.001L15,4" stroke="#000000" fill="none" stroke-width="1" stroke-linecap="round" stroke-linejoin="round"></path></g></svg>