<svg xmlns="http://www.w3.org/2000/svg" version="1.1" xmlns:xlink="http://www.w3.org/1999/xlink" xmlns:svgjs="http://svgjs.com/svgjs" viewBox="0 0 40 40" width="40" height="40"><title>Exported from Streamline App (https://app.streamlineicons.com)</title><g transform="matrix(1.6666666666666667,0,0,1.6666666666666667,0,0)"><path d="M 0.5,6.504h20 " stroke="#ffffff" fill="none" stroke-width="1" stroke-linecap="round" stroke-linejoin="round"></path><path d="M 3.5,4.254L3.5,4.254 " stroke="#ffffff" fill="none" stroke-width="1" stroke-linecap="round" stroke-linejoin="round"></path><path d="M 3.5,4.254c-0.138,0-0.25,0.112-0.25,0.25s0.112,0.25,0.25,0.25 s0.25-0.112,0.25-0.25S3.638,4.254,3.5,4.254 " stroke="#ffffff" fill="none" stroke-width="1" stroke-linecap="round" stroke-linejoin="round"></path><path d="M 5.5,4.254L5.5,4.254 " stroke="#ffffff" fill="none" stroke-width="1" stroke-linecap="round" stroke-linejoin="round"></path><path d="M 5.5,4.254c-0.138,0-0.25,0.112-0.25,0.25s0.112,0.25,0.25,0.25 s0.25-0.112,0.25-0.25S5.638,4.254,5.5,4.254 " stroke="#ffffff" fill="none" stroke-width="1" stroke-linecap="round" stroke-linejoin="round"></path><path d="M 7.5,4.254L7.5,4.254 " stroke="#ffffff" fill="none" stroke-width="1" stroke-linecap="round" stroke-linejoin="round"></path><path d="M 7.5,4.254c-0.138,0-0.25,0.112-0.25,0.25s0.112,0.25,0.25,0.25 s0.25-0.112,0.25-0.25S7.638,4.254,7.5,4.254 " stroke="#ffffff" fill="none" stroke-width="1" stroke-linecap="round" stroke-linejoin="round"></path><path d="M 2.5,2.504h16c1.105,0,2,0.895,2,2v11c0,1.105-0.895,2-2,2h-16c-1.105,0-2-0.895-2-2 v-11C0.5,3.399,1.395,2.504,2.5,2.504z " stroke="#ffffff" fill="none" stroke-width="1" stroke-linecap="round" stroke-linejoin="round"></path><path d="M 20.5,10.504h3 " stroke="#ffffff" fill="none" stroke-width="1" stroke-linecap="round" stroke-linejoin="round"></path><path d="M 20.5,6.5h1c1.105,0,2,0.895,2,2v11c0,1.105-0.895,2-2,2h-16 c-1.105,0-2-0.895-2-2v-2" stroke="#ffffff" fill="none" stroke-width="1" stroke-linecap="round" stroke-linejoin="round"></path></g></svg>