<svg xmlns="http://www.w3.org/2000/svg" version="1.1" xmlns:xlink="http://www.w3.org/1999/xlink" xmlns:svgjs="http://svgjs.com/svgjs" viewBox="0 0 40 40" width="40" height="40"><title>Exported from Streamline App (https://app.streamlineicons.com)</title><g transform="matrix(1.6666666666666667,0,0,1.6666666666666667,0,0)"><path d="M 5.5,17h-2c-0.552,0-1-0.448-1-1V2c0-0.552,0.448-1,1-1h11c0.552,0,1,0.448,1,1v2 " stroke="#000000" fill="none" stroke-width="1" stroke-linecap="round" stroke-linejoin="round"></path><path d="M 8.5,20h-2 c-0.552,0-1-0.448-1-1V5c0-0.552,0.448-1,1-1h11c0.552,0,1,0.448,1,1v2 " stroke="#000000" fill="none" stroke-width="1" stroke-linecap="round" stroke-linejoin="round"></path><path d="M 9.5,7h11c0.552,0,1,0.448,1,1v14c0,0.552-0.448,1-1,1h-11 c-0.552,0-1-0.448-1-1V8C8.5,7.448,8.948,7,9.5,7z " stroke="#000000" fill="none" stroke-width="1" stroke-linecap="round" stroke-linejoin="round"></path><path d="M 10.5,11l0.366,0.732c0.119,0.239,0.41,0.337,0.649,0.218 c0.047-0.023,0.09-0.054,0.127-0.092L13.5,10 " stroke="#000000" fill="none" stroke-width="1" stroke-linecap="round" stroke-linejoin="round"></path><path d="M 15.5,11h4 " stroke="#000000" fill="none" stroke-width="1" stroke-linecap="round" stroke-linejoin="round"></path><path d="M 10.5,16l0.366,0.732c0.119,0.239,0.41,0.337,0.649,0.218 c0.047-0.023,0.09-0.054,0.127-0.092L13.5,15 " stroke="#000000" fill="none" stroke-width="1" stroke-linecap="round" stroke-linejoin="round"></path><path d="M 15.5,16h4 " stroke="#000000" fill="none" stroke-width="1" stroke-linecap="round" stroke-linejoin="round"></path><path d="M 15.5,19h2" stroke="#000000" fill="none" stroke-width="1" stroke-linecap="round" stroke-linejoin="round"></path></g></svg>