<svg xmlns="http://www.w3.org/2000/svg" version="1.1" xmlns:xlink="http://www.w3.org/1999/xlink" xmlns:svgjs="http://svgjs.com/svgjs" viewBox="0 0 40 40" width="40" height="40"><title>Exported from Streamline App (https://app.streamlineicons.com)</title><g transform="matrix(1.6666666666666667,0,0,1.6666666666666667,0,0)"><path d="M 9.138,23.5c0.829-1.175,1.302-2.564,1.362-4 " stroke="#ffffff" fill="none" stroke-width="1" stroke-linecap="round" stroke-linejoin="round"></path><path d="M 14.862,23.5c-0.829-1.175-1.302-2.564-1.362-4 " stroke="#ffffff" fill="none" stroke-width="1" stroke-linecap="round" stroke-linejoin="round"></path><path d="M 7.5,23.5h9 " stroke="#ffffff" fill="none" stroke-width="1" stroke-linecap="round" stroke-linejoin="round"></path><path d="M 0.5,16.5h23 " stroke="#ffffff" fill="none" stroke-width="1" stroke-linecap="round" stroke-linejoin="round"></path><path d="M 14.5,0.5h-13c-0.552,0-1,0.448-1,1v17c0,0.552,0.448,1,1,1h21c0.552,0,1-0.448,1-1v-5 " stroke="#ffffff" fill="none" stroke-width="1" stroke-linecap="round" stroke-linejoin="round"></path><path d="M 12.5,11.5h-7 c-0.552,0-1-0.448-1-1v-4c0-0.552,0.448-1,1-1h7 " stroke="#ffffff" fill="none" stroke-width="1" stroke-linecap="round" stroke-linejoin="round"></path><path d="M 15.5,4.5h7c0.552,0,1,0.448,1,1v5c0,0.552-0.448,1-1,1h-7c-0.552,0-1-0.448-1-1 v-5C14.5,4.948,14.948,4.5,15.5,4.5z " stroke="#ffffff" fill="none" stroke-width="1" stroke-linecap="round" stroke-linejoin="round"></path><path d="M 19,7c-0.552,0-1,0.448-1,1s0.448,1,1,1s1-0.448,1-1S19.552,7,19,7z " stroke="#ffffff" fill="none" stroke-width="1" stroke-linecap="round" stroke-linejoin="round"></path><path d="M 16.5,4.5V3 c0-1.381,1.119-2.5,2.5-2.5s2.5,1.119,2.5,2.5v1.5 " stroke="#ffffff" fill="none" stroke-width="1" stroke-linecap="round" stroke-linejoin="round"></path><path d="M 8,8.25c0.138,0,0.25,0.112,0.25,0.25S8.138,8.75,8,8.75S7.75,8.638,7.75,8.5 S7.862,8.25,8,8.25 " stroke="#ffffff" fill="none" stroke-width="1" stroke-linecap="round" stroke-linejoin="round"></path><path d="M 12,8.25c0.138,0,0.25,0.112,0.25,0.25S12.138,8.75,12,8.75s-0.25-0.112-0.25-0.25S11.862,8.25,12,8.25" stroke="#ffffff" fill="none" stroke-width="1" stroke-linecap="round" stroke-linejoin="round"></path></g></svg>