<svg xmlns="http://www.w3.org/2000/svg" version="1.1" xmlns:xlink="http://www.w3.org/1999/xlink" xmlns:svgjs="http://svgjs.com/svgjs" viewBox="0 0 40 40" width="40" height="40"><title>Exported from Streamline App (https://app.streamlineicons.com)</title><g transform="matrix(1.6666666666666667,0,0,1.6666666666666667,0,0)"><path d="M 5.03,10.43c3.905-3.905,10.237-3.905,14.142,0 " stroke="#000000" fill="none" stroke-width="1" stroke-linecap="round" stroke-linejoin="round"></path><path d="M 22,6.6C16.533,1.132,7.669,1.132,2.201,6.599 c0,0-0.001,0.001-0.001,0.001 " stroke="#000000" fill="none" stroke-width="1" stroke-linecap="round" stroke-linejoin="round"></path><path d="M 7.857,14.257c2.343-2.343,6.142-2.344,8.485-0.001c0,0,0,0,0.001,0.001 " stroke="#000000" fill="none" stroke-width="1" stroke-linecap="round" stroke-linejoin="round"></path><path d="M 19.172,10.43 c-3.905-3.905-10.237-3.905-14.142,0 " stroke="#000000" fill="none" stroke-width="1" stroke-linecap="round" stroke-linejoin="round"></path><path d="M 16.344,14.257c-2.343-2.343-6.142-2.344-8.485-0.001c0,0,0,0-0.001,0.001 " stroke="#000000" fill="none" stroke-width="1" stroke-linecap="round" stroke-linejoin="round"></path><path d="M 12.1,17.5 c1.105,0,2,0.895,2,2s-0.895,2-2,2s-2-0.895-2-2S10.995,17.5,12.1,17.5z" stroke="#000000" fill="none" stroke-width="1" stroke-linecap="round" stroke-linejoin="round"></path></g></svg>