<?xml version="1.0" encoding="utf-8"?>
<!-- Generator: Adobe Illustrator 15.0.0, SVG Export Plug-In . SVG Version: 6.00 Build 0)  -->
<!DOCTYPE svg PUBLIC "-//W3C//DTD SVG 1.1//EN" "http://www.w3.org/Graphics/SVG/1.1/DTD/svg11.dtd">
<svg version="1.1" id="Layer_1" xmlns="http://www.w3.org/2000/svg" xmlns:xlink="http://www.w3.org/1999/xlink" x="0px" y="0px"
	 width="467.154px" height="232.36px" viewBox="0 0 467.154 232.36" enable-background="new 0 0 467.154 232.36"
	 xml:space="preserve">
<g>
	<path fill="#444D3E" d="M37.703,165.836h5.289v14.012h-5.289V165.836z"/>
	<path fill="#444D3E" d="M28.959,170.807H9.957c-2.957,0-4.512,1.789-4.512,4.588v7.078c0,2.645,1.789,3.889,4.355,4.59
		c6.455,1.789,7.699,2.178,13.922,3.967c4.512,1.322,8.09,3.578,8.09,8.479v9.395c0,4.979-3.578,8.633-8.557,8.633H1.502
		l1.322-5.055h19.031c2.957,0,4.512-1.711,4.512-4.512v-7.605c0-2.568-1.322-3.734-4.355-4.59
		c-6.066-1.711-8.012-2.256-13.844-3.889C3.5,190.563,0,188.229,0,183.485v-9.023c0-5.055,3.656-8.635,8.635-8.635h21.723
		L28.959,170.807z"/>
	<path fill="#444D3E" d="M37.703,184.893h5.289v32.643h-5.289V184.893z"/>
	<path fill="#444D3E" d="M82.887,217.534v-37.68H88.1v3.033c4.355-2.178,10.422-3.811,14.311-3.811c5.211,0,8.479,3.422,8.479,8.479
		v29.979H105.6v-28.813c0-2.955-1.557-4.512-4.512-4.512c-2.1,0-5.6,0.934-8.4,1.945c-2.645,0.855-4.512,2.1-4.512,4.666v26.713
		H82.887z"/>
	<path fill="#444D3E" d="M148.795,179.84h5.99v-12.555l5.289-1.467v14.021h9.334l-1.699,5.059h-7.635v23.381
		c0,2.801,1.711,4.59,4.512,4.59h4.822v4.666h-6.223c-4.822,0-8.4-3.578-8.4-8.477v-24.16h-5.99V179.84z"/>
	<path fill="#444D3E" d="M202.543,179.844v37.695h-5.215v-3.033c-4.355,2.178-10.428,3.813-14.322,3.813
		c-5.211,0-8.479-3.424-8.479-8.479v-29.996h5.289v28.83c0,2.955,1.557,4.51,4.514,4.51c2.104,0,5.609-0.934,8.408-1.943
		c2.643-0.855,4.512-2.102,4.512-4.668v-26.729H202.543z"/>
	<path fill="#444D3E" d="M208.51,217.528v-29.051c0-5.055,3.654-8.633,8.555-8.633h14.494l-1.322,5.057h-11.773
		c-2.799,0-4.51,1.711-4.51,4.51v28.117H208.51z"/>
	<path fill="#444D3E" d="M144.762,188.481c0-5.039-3.635-8.609-8.512-8.631v-0.006l-11.086,0.002c-4.9,0-8.4,3.578-8.4,8.633
		l-0.01,21.352c0,5.055,3.268,8.479,8.479,8.479c3.896,0,9.967-1.635,14.324-3.813v3.033h5.211L144.762,188.481z M134.967,211.231
		c-2.801,1.01-6.307,1.943-8.41,1.943c-2.957,0-4.514-1.555-4.514-4.51v-19.332c0.035-2.752,1.748-4.432,4.521-4.432h2.252v0.004
		l5.99-0.002c2.799,0,4.666,1.711,4.668,4.512l0.004,17.148C139.479,209.129,137.609,210.375,134.967,211.231z"/>
	<path fill="#444D3E" d="M76.982,188.487c-0.002-5.039-3.635-8.607-8.514-8.631v-0.006l-11.086,0.002c-4.9,0-8.4,3.578-8.4,8.633
		l-0.009,21.352c0,5.055,3.267,8.479,8.479,8.479c3.896,0,9.967-1.635,14.323-3.813v8.678c0,2.799-1.48,4.51-4.281,4.51H52.965
		l1.299,4.668h12.842c5.678,0,9.877-2.412,9.877-8.479V188.487z M71.697,206.569c0,2.566-1.867,3.813-4.512,4.668
		c-2.8,1.01-6.306,1.943-8.408,1.943c-2.959,0-4.515-1.555-4.515-4.51v-19.33c0.034-2.752,1.748-4.434,4.521-4.434h2.252v0.004h5.99
		c2.799,0,4.666,1.711,4.668,4.51L71.697,206.569z"/>
	<path fill="#444D3E" d="M439.152,217.534v-37.68h5.213v3.033c4.355-2.178,10.422-3.811,14.311-3.811
		c5.211,0,8.479,3.422,8.479,8.479v29.979h-5.289v-28.813c0-2.955-1.557-4.512-4.512-4.512c-2.1,0-5.6,0.934-8.4,1.945
		c-2.645,0.855-4.512,2.1-4.512,4.666v26.713H439.152z"/>
	<path fill="#444D3E" d="M331.486,179.844v37.695h-5.213v-3.033c-4.357,2.178-10.43,3.813-14.324,3.813
		c-5.213,0-8.479-3.424-8.479-8.479v-29.996h5.289v28.83c0,2.955,1.555,4.51,4.514,4.51c2.104,0,5.609-0.934,8.41-1.943
		c2.643-0.855,4.512-2.102,4.512-4.668v-26.729H331.486z"/>
	<path fill="#444D3E" d="M275.697,217.528v-29.051c0-5.055,3.654-8.633,8.555-8.633h14.5l-1.322,5.057h-11.777
		c-2.801,0-4.512,1.711-4.512,4.51v28.117H275.697z"/>
	<path fill="#444D3E" d="M365.804,188.473c0-5.055-3.641-8.633-8.541-8.633h-11.086l-0.002,0.006
		c-4.877,0.021-8.51,3.592-8.51,8.631l-0.002,43.883h5.424l0.023-17.848c4.045,2.172,10.25,3.801,14.209,3.801
		c5.445,0,8.479-3.424,8.479-8.479L365.804,188.473z M360.375,207.733c0,3.424-0.799,5.602-4.377,5.602c-2.1,0-5.6-0.934-8.4-1.945
		c-2.551-0.9-4.361-2.031-4.486-4.414v-17.564c0-2.801,1.711-4.512,4.512-4.512h5.988v-0.004h2.254c2.799,0,4.51,1.711,4.51,4.512
		V207.733z"/>
	<path fill="#444D3E" d="M399.789,188.473c0-5.055-3.641-8.633-8.541-8.633h-11.086l-0.002,0.006
		c-4.877,0.021-8.51,3.592-8.51,8.631l-0.002,43.883h5.424l0.023-17.848c4.045,2.172,10.25,3.801,14.209,3.801
		c5.445,0,8.479-3.424,8.479-8.479L399.789,188.473z M394.359,207.733c0,3.424-0.799,5.602-4.377,5.602c-2.1,0-5.6-0.934-8.4-1.945
		c-2.551-0.9-4.361-2.031-4.486-4.414v-17.564c0-2.801,1.711-4.512,4.512-4.512h5.988v-0.004h2.254c2.799,0,4.51,1.711,4.51,4.512
		V207.733z"/>
	<path fill="#444D3E" d="M264.742,197.956v10.012c0,2.799-1.711,4.51-4.512,4.51l-13.684,0.004c-2.799,0-4.508-1.711-4.508-4.51
		l0.018-32.572c0-2.801,1.709-4.605,4.51-4.605h19.025l1.4-4.967l-21.873,0.006c-4.873,0.023-8.504,3.594-8.504,8.633l-0.002,34.439
		c0,5.055,3.639,8.633,8.535,8.633h16.527v-0.006c4.877-0.023,8.51-3.592,8.51-8.631l0.002-13.496L264.742,197.956z"/>
	<path fill="#444D3E" d="M425.154,179.846l-11.086-0.002v0.006c-4.879,0.023-8.512,3.592-8.514,8.631v20.566
		c0,6.066,4.199,8.479,9.877,8.479h15.107l-1.297-4.668h-14.199c-2.801,0-4.203-1.711-4.203-4.51v-5.346l14.201-0.004
		c4.879-0.023,8.512-3.592,8.514-8.631v-5.889C433.554,183.424,430.054,179.846,425.154,179.846z M428.265,193.434
		c-0.002,2.799-1.869,4.51-4.668,4.51l-12.758,0.004l0.004-8.533c0.002-2.799,1.869-4.51,4.668-4.51l8.242-0.004
		c2.771,0,4.486,1.682,4.52,4.434L428.265,193.434z"/>
	<g>
		<polygon fill="#8CD2F4" points="250.863,27.808 249.695,17.548 183.9,17.549 183.9,82.14 201.438,99.277 201.438,33.437 		"/>
		<polygon fill="#8CD2F4" points="265.574,65.833 216.148,71.465 217.316,81.725 249.632,81.725 283.113,81.721 283.113,17.134 
			265.574,0 		"/>
		<polygon fill="#00AEEF" points="265.574,65.833 265.574,0.003 201.027,0.002 183.9,17.548 249.695,17.548 255.322,67.001 		"/>
		<polygon fill="#00AEEF" points="201.438,33.437 201.438,99.276 265.984,99.276 283.113,81.725 217.316,81.725 211.689,32.271 		
			"/>
	</g>
</g>
</svg>
