<?xml version="1.0" encoding="utf-8"?>
<!-- Generator: Adobe Illustrator 24.1.3, SVG Export Plug-In . SVG Version: 6.00 Build 0)  -->
<svg version="1.1" id="Layer_1" xmlns="http://www.w3.org/2000/svg" xmlns:xlink="http://www.w3.org/1999/xlink" x="0px" y="0px"
	 viewBox="0 0 566.561 128.958" enable-background="new 0 0 566.561 128.958" xml:space="preserve">
<g>
	<path fill="#2B71B8" d="M171.766,50.858h38.397c3.406,0,6.479,0.478,9.213,1.43c2.733,0.954,5.053,2.273,6.954,3.96
		c1.901,1.688,3.349,3.759,4.339,6.215c0.99,2.458,1.485,5.153,1.485,8.085c0,2.934-0.416,5.41-1.247,7.426
		c-0.832,2.02-1.943,3.686-3.329,5.005c-1.389,1.319-2.973,2.312-4.756,2.972c-1.782,0.659-3.625,1.026-5.527,1.1v0.66
		c1.822,0,3.784,0.33,5.886,0.99c2.099,0.659,4.042,1.704,5.824,3.135c1.783,1.431,3.27,3.265,4.458,5.5
		c1.189,2.236,1.783,5.004,1.783,8.306c0,3.079-0.535,5.959-1.604,8.635c-1.07,2.681-2.557,5.007-4.458,6.983
		c-1.901,1.98-4.161,3.539-6.775,4.677c-2.615,1.14-5.469,1.705-8.56,1.705h-42.083V50.858L171.766,50.858z M187.458,82.868h19.377
		c2.854,0,5.07-0.715,6.657-2.146c1.584-1.431,2.378-3.427,2.378-5.995v-3.409c0-2.566-0.793-4.566-2.378-5.995
		c-1.587-1.431-3.805-2.146-6.657-2.146h-19.377V82.868z M187.458,115.318h21.874c3.011,0,5.351-0.716,7.015-2.146
		c1.665-1.43,2.496-3.502,2.496-6.215v-3.74c0-2.713-0.831-4.803-2.496-6.27c-1.664-1.469-4.002-2.201-7.015-2.201h-21.874V115.318
		L187.458,115.318z"/>
	<path fill="#2B71B8" d="M253.911,127.637H238.22V50.858h37.446c3.805,0,7.211,0.55,10.225,1.649
		c3.011,1.101,5.565,2.695,7.668,4.785c2.1,2.09,3.725,4.603,4.874,7.535c1.146,2.933,1.724,6.197,1.724,9.791
		c0,5.278-1.289,9.826-3.863,13.639c-2.576,3.814-6.439,6.529-11.591,8.142l16.999,31.24h-17.475l-15.455-29.591h-14.859
		L253.911,127.637L253.911,127.637z M274.12,85.836c3.012,0,5.389-0.75,7.133-2.254c1.742-1.502,2.615-3.647,2.615-6.438v-5.06
		c0-2.787-0.873-4.912-2.615-6.381c-1.744-1.464-4.121-2.2-7.133-2.2h-20.209v22.331h20.209V85.836z"/>
	<path fill="#2B71B8" d="M336.176,128.958c-5.471,0-10.423-0.844-14.86-2.528c-4.438-1.687-8.223-4.218-11.353-7.591
		c-3.134-3.373-5.569-7.516-7.314-12.43c-1.744-4.912-2.615-10.634-2.615-17.16c0-6.453,0.871-12.156,2.615-17.105
		c1.742-4.949,4.18-9.11,7.314-12.484c3.13-3.372,6.913-5.902,11.353-7.59c4.438-1.687,9.392-2.53,14.86-2.53
		c5.468,0,10.42,0.844,14.857,2.53c4.438,1.688,8.242,4.218,11.413,7.59c3.169,3.374,5.605,7.535,7.313,12.484
		c1.703,4.948,2.556,10.651,2.556,17.105c0,6.526-0.853,12.248-2.556,17.16c-1.705,4.914-4.143,9.057-7.313,12.43
		c-3.171,3.373-6.976,5.904-11.413,7.591C346.595,128.114,341.643,128.958,336.176,128.958z M336.176,116.086
		c5.941,0,10.679-1.832,14.206-5.5c3.523-3.666,5.29-8.799,5.29-15.399v-11.88c0-6.6-1.767-11.73-5.29-15.398
		c-3.527-3.666-8.265-5.5-14.206-5.5c-5.944,0-10.683,1.834-14.206,5.5c-3.527,3.668-5.29,8.799-5.29,15.398v11.88
		c0,6.601,1.763,11.733,5.29,15.399C325.493,114.254,330.23,116.086,336.176,116.086z"/>
	<path fill="#2B71B8" d="M402.628,92.877l-11.058,12.1v22.66h-15.69V50.858h15.69v37.84h0.594l11.772-14.41l20.566-23.43h18.067
		l-28.888,32.01l31.266,44.771h-18.664L402.628,92.877z"/>
	<path fill="#2B71B8" d="M444.115,127.637V50.858h54.686v12.869h-38.992v18.591h34.475v12.869h-34.475v19.58h38.992v12.87H444.115z"
		/>
	<path fill="#2B71B8" d="M518.771,127.637h-15.692V50.858h37.447c3.804,0,7.211,0.55,10.225,1.649
		c3.012,1.101,5.565,2.695,7.669,4.785c2.099,2.09,3.724,4.603,4.874,7.535c1.146,2.933,1.724,6.197,1.724,9.791
		c0,5.278-1.289,9.826-3.864,13.639c-2.576,3.814-6.438,6.529-11.591,8.142l17,31.24h-17.475l-15.455-29.591h-14.859
		L518.771,127.637L518.771,127.637z M538.979,85.836c3.012,0,5.389-0.75,7.133-2.254c1.742-1.502,2.615-3.647,2.615-6.438v-5.06
		c0-2.787-0.873-4.912-2.615-6.381c-1.744-1.464-4.121-2.2-7.133-2.2H518.77v22.331h20.209V85.836z"/>
</g>
<path fill="#2D70B8" d="M52.643,116.104c-2.478,0-4.904-0.451-7.214-1.344l-4.707-1.809C17.561,104.042,2,81.385,2,56.573V22.101
	c-0.035-5.152,2.995-9.909,7.722-12.076c0.035-0.017,0.071-0.033,0.108-0.048C23.125,4.172,37.227,1.23,51.741,1.23l0.901,0.004
	l0.901-0.004c14.516,0,28.616,2.942,41.911,8.747c0.036,0.016,0.07,0.031,0.106,0.048c4.727,2.166,7.758,6.922,7.725,12.119v34.429
	c0,24.812-15.561,47.468-38.721,56.378l-4.715,1.813C57.547,115.653,55.119,116.104,52.643,116.104z M15.121,21.851
	c-0.075,0.042-0.122,0.121-0.121,0.205v34.517c0,19.472,12.212,37.253,30.389,44.246l4.711,1.811
	c1.641,0.635,3.457,0.629,5.083,0.002l4.719-1.813c18.175-6.992,30.387-24.773,30.387-44.245V22.101
	c0-0.125-0.046-0.207-0.122-0.249c-11.618-5.058-23.938-7.622-36.62-7.622l-0.843,0.003c-0.04,0.001-0.079,0.001-0.119,0
	l-0.844-0.003C39.061,14.23,26.741,16.794,15.121,21.851z"/>
<g transform="matrix(2,0,0,2,0,0)">
	<path fill="#89D5EF" d="M64.851,23.889c-5.508-2.304-11.426-3.464-17.395-3.409c-5.971-0.055-11.889,1.107-17.397,3.409
		c-1.645,0.711-2.713,2.326-2.72,4.119v13.309c0.142,9.76,6.323,18.406,15.512,21.696l1.954,0.73c1.712,0.628,3.592,0.628,5.304,0
		l1.951-0.73c9.189-3.289,15.374-11.937,15.514-21.696V28.008C67.566,26.215,66.496,24.598,64.851,23.889z"/>
</g>
<g>
	<path fill="#323232" d="M181.782,19.333l-3.616-7.281h-0.15v25.259h-6.277V2.259h7.282l10.545,17.978l3.615,7.281h0.151V2.259
		h6.277v35.051h-7.281L181.782,19.333z"/>
	<path fill="#323232" d="M214.921,24.154c0-8.286,4.469-13.659,12.152-13.659c8.186,0,11.952,6.026,11.952,13.207v2.109H221.6v0.653
		c0,3.766,2.159,6.327,6.377,6.327c3.164,0,5.072-1.506,6.679-3.565l3.465,3.867c-2.16,2.963-5.976,4.821-10.847,4.821
		C219.541,37.913,214.921,32.54,214.921,24.154z M221.6,21.442v0.402h10.747v-0.452c0-3.616-1.858-6.077-5.172-6.077
		C223.809,15.315,221.6,17.827,221.6,21.442z"/>
	<path fill="#323232" d="M255.343,30.632V16.22h-3.867v-5.122h2.009c1.908,0,2.511-0.904,2.511-2.712V3.917h5.775v7.181h5.373v5.122
		h-5.373v15.969h4.972v5.122h-4.62C257.703,37.311,255.343,34.9,255.343,30.632z"/>
	<path fill="#323232" d="M279.695,33.092l3.917-3.816c1.908,2.209,4.218,3.565,7.181,3.565c3.063,0,4.369-1.155,4.369-3.013
		c0-1.506-0.904-2.46-3.214-2.762l-2.611-0.352c-5.625-0.703-8.738-3.164-8.738-7.934c0-5.072,3.967-8.286,9.943-8.286
		c5.122,0,7.733,1.507,10.244,4.118l-3.767,3.766c-1.506-1.607-3.716-2.812-6.276-2.812c-2.763,0-3.968,1.104-3.968,2.711
		c0,1.758,0.954,2.561,3.415,2.963l2.661,0.352c5.725,0.803,8.487,3.364,8.487,7.733c0,5.072-4.269,8.587-10.797,8.587
		C285.571,37.913,282.307,36.105,279.695,33.092z"/>
	<path fill="#323232" d="M335.581,24.154c0-8.286,4.47-13.659,12.153-13.659c8.185,0,11.951,6.026,11.951,13.207v2.109h-17.425
		v0.653c0,3.766,2.159,6.327,6.377,6.327c3.164,0,5.072-1.506,6.679-3.565l3.465,3.867c-2.159,2.963-5.976,4.821-10.847,4.821
		C340.201,37.913,335.581,32.54,335.581,24.154z M342.261,21.442v0.402h10.746v-0.452c0-3.616-1.858-6.077-5.173-6.077
		C344.47,15.315,342.261,17.827,342.261,21.442z"/>
	<path fill="#323232" d="M373.292,37.311v-5.323h4.62V7.583h-4.62V2.259h15.919v5.323h-4.67v24.405h4.67v5.323H373.292z"/>
	<path fill="#323232" d="M405.228,2.259h12.755c9.14,0,15.115,5.875,15.115,17.526c0,11.65-5.976,17.525-15.115,17.525h-12.755
		V2.259z M417.983,31.435c4.921,0,8.085-2.913,8.085-8.888v-5.524c0-5.976-3.164-8.888-8.085-8.888h-6.127v23.3H417.983z"/>
</g>
</svg>
