<?xml version="1.0" encoding="utf-8"?>
<!-- Generator: Adobe Illustrator 15.0.0, SVG Export Plug-In . SVG Version: 6.00 Build 0)  -->
<!DOCTYPE svg PUBLIC "-//W3C//DTD SVG 1.1//EN" "http://www.w3.org/Graphics/SVG/1.1/DTD/svg11.dtd">
<svg version="1.1" id="Layer_1" xmlns="http://www.w3.org/2000/svg" xmlns:xlink="http://www.w3.org/1999/xlink" x="0px" y="0px"
	 width="24px" height="24px" viewBox="0 0 24 24" enable-background="new 0 0 24 24" xml:space="preserve">
<g id="Filled_Icons">
	<g>
		<path fill="#0060E6" d="M21.63,4.538c-0.073-0.02-7.397-2.016-9.769-4.391c-0.188-0.189-0.535-0.189-0.723,0
			C8.769,2.52,1.443,4.518,1.37,4.538C1.151,4.597,1,4.795,1,5.021c0,8.57,0.761,15.404,10.326,18.948
			C11.383,23.989,11.441,24,11.5,24s0.117-0.011,0.174-0.031C21.238,20.425,22,13.59,22,5.021C22,4.795,21.85,4.597,21.63,4.538z"/>
	</g>
</g>
<g id="invisible_shape">
	<rect fill="none" width="24" height="24"/>
</g>
</svg>
