<svg xmlns="http://www.w3.org/2000/svg" version="1.1" xmlns:xlink="http://www.w3.org/1999/xlink" xmlns:svgjs="http://svgjs.com/svgjs" viewBox="0 0 40 40" width="40" height="40"><title>Exported from Streamline App (https://app.streamlineicons.com)</title><g transform="matrix(1.6666666666666667,0,0,1.6666666666666667,0,0)"><path d="M 13.5,16.25c0.138,0,0.25,0.112,0.25,0.25s-0.112,0.25-0.25,0.25s-0.25-0.112-0.25-0.25 S13.362,16.25,13.5,16.25 " stroke="#ffffff" fill="none" stroke-width="1" stroke-linecap="round" stroke-linejoin="round"></path><path d="M 16.5,16.25c0.138,0,0.25,0.112,0.25,0.25s-0.112,0.25-0.25,0.25s-0.25-0.112-0.25-0.25 S16.362,16.25,16.5,16.25 " stroke="#ffffff" fill="none" stroke-width="1" stroke-linecap="round" stroke-linejoin="round"></path><path d="M 19.5,16.25c0.138,0,0.25,0.112,0.25,0.25s-0.112,0.25-0.25,0.25s-0.25-0.112-0.25-0.25 S19.362,16.25,19.5,16.25 " stroke="#ffffff" fill="none" stroke-width="1" stroke-linecap="round" stroke-linejoin="round"></path><path d="M 9.5,4.5v2 " stroke="#ffffff" fill="none" stroke-width="1" stroke-linecap="round" stroke-linejoin="round"></path><path d="M 15.5,4.5v2 " stroke="#ffffff" fill="none" stroke-width="1" stroke-linecap="round" stroke-linejoin="round"></path><path d="M 9.5,12c-1.219-0.21-2.342-0.793-3.215-1.669 " stroke="#ffffff" fill="none" stroke-width="1" stroke-linecap="round" stroke-linejoin="round"></path><path d="M 7.971,18.673l-6.609,3.076 l2.588-5.166c-2.118-1.585-3.39-4.055-3.45-6.7C0.5,4.7,5.648,0.5,12,0.5s11.5,4.2,11.5,9.383 " stroke="#ffffff" fill="none" stroke-width="1" stroke-linecap="round" stroke-linejoin="round"></path><path d="M 9.7,16.381 c0,3.108,3.089,5.629,6.9,5.629c0.819,0.002,1.634-0.118,2.418-0.356l3.965,1.846l-1.553-3.1c1.271-0.951,2.034-2.433,2.07-4.019 c0-3.109-3.089-5.63-6.9-5.63S9.7,13.272,9.7,16.381z" stroke="#ffffff" fill="none" stroke-width="1" stroke-linecap="round" stroke-linejoin="round"></path></g></svg>