<svg xmlns="http://www.w3.org/2000/svg" version="1.1" xmlns:xlink="http://www.w3.org/1999/xlink" xmlns:svgjs="http://svgjs.com/svgjs" viewBox="0 0 140 140" width="140" height="140"><g transform="matrix(5.833333333333333,0,0,5.833333333333333,0,0)"><path d="M23.146,5.4,20.354,2.6a.5.5,0,0,0-.708,0L7.854,14.4a.5.5,0,0,1-.708,0L4.354,11.6a.5.5,0,0,0-.708,0L.854,14.4a.5.5,0,0,0,0,.707L7.146,21.4a.5.5,0,0,0,.708,0L23.146,6.1A.5.5,0,0,0,23.146,5.4Z" fill="#0071cf" stroke="none" stroke-linecap="round" stroke-linejoin="round" stroke-width="0"></path></g></svg>