<svg xmlns="http://www.w3.org/2000/svg" viewBox="0 0 24 24" height="24" width="24" id="Desktop-Computer-Pc--Streamline-Streamline--3.0.svg"><desc>Desktop Computer Pc Streamline Icon: https://streamlinehq.com</desc><defs></defs><title>desktop-computer-pc</title><path d="M1.5 7.5h12s1 0 1 1v9s0 1 -1 1h-12s-1 0 -1 -1v-9s0 -1 1 -1" fill="none" stroke="#000000" stroke-linecap="round" stroke-linejoin="round" stroke-width="1"></path><path d="m7.5 18.5 0 3" fill="none" stroke="#000000" stroke-linecap="round" stroke-linejoin="round" stroke-width="1"></path><path d="m4.496 21.5 6 0" fill="none" stroke="#000000" stroke-linecap="round" stroke-linejoin="round" stroke-width="1"></path><path d="M13.5 5.5v-2a1 1 0 0 1 1 -1h8a1 1 0 0 1 1 1v17a1 1 0 0 1 -1 1h-8a1 1 0 0 1 -1 -1" fill="none" stroke="#000000" stroke-linecap="round" stroke-linejoin="round" stroke-width="1"></path><path d="m23.5 6.5 -7 0" fill="none" stroke="#000000" stroke-linecap="round" stroke-linejoin="round" stroke-width="1"></path><path d="m23.5 9.5 -7 0" fill="none" stroke="#000000" stroke-linecap="round" stroke-linejoin="round" stroke-width="1"></path><path d="M17 16a1.5 1.5 0 1 0 3 0 1.5 1.5 0 1 0 -3 0" fill="none" stroke="#000000" stroke-linecap="round" stroke-linejoin="round" stroke-width="1"></path></svg>