<svg xmlns="http://www.w3.org/2000/svg" viewBox="0 0 24 24" id="Equalizer-1--Streamline-Streamline--3.0.svg" height="24" width="24"><desc>Equalizer 1 Streamline Icon: https://streamlinehq.com</desc><defs></defs><title>equalizer-1</title><path d="M1.5 1h21s1 0 1 1v20s0 1 -1 1h-21s-1 0 -1 -1V2s0 -1 1 -1" fill="none" stroke="#000000" stroke-linecap="round" stroke-linejoin="round" stroke-width="1"></path><path d="m4.5 9 0 6" fill="none" stroke="#000000" stroke-linecap="round" stroke-linejoin="round" stroke-width="1"></path><path d="M4 15h1s0.5 0 0.5 0.5v2s0 0.5 -0.5 0.5H4s-0.5 0 -0.5 -0.5v-2s0 -0.5 0.5 -0.5" fill="none" stroke="#000000" stroke-linecap="round" stroke-linejoin="round" stroke-width="1"></path><path d="m4.5 18 0 3" fill="none" stroke="#000000" stroke-linecap="round" stroke-linejoin="round" stroke-width="1"></path><path d="m9.5 9 0 4" fill="none" stroke="#000000" stroke-linecap="round" stroke-linejoin="round" stroke-width="1"></path><path d="M9 13h1s0.5 0 0.5 0.5v2s0 0.5 -0.5 0.5H9s-0.5 0 -0.5 -0.5v-2s0 -0.5 0.5 -0.5" fill="none" stroke="#000000" stroke-linecap="round" stroke-linejoin="round" stroke-width="1"></path><path d="m9.5 16 0 5" fill="none" stroke="#000000" stroke-linecap="round" stroke-linejoin="round" stroke-width="1"></path><path d="m14.5 9 0 2" fill="none" stroke="#000000" stroke-linecap="round" stroke-linejoin="round" stroke-width="1"></path><path d="M14 11h1s0.5 0 0.5 0.5v2s0 0.5 -0.5 0.5h-1s-0.5 0 -0.5 -0.5v-2s0 -0.5 0.5 -0.5" fill="none" stroke="#000000" stroke-linecap="round" stroke-linejoin="round" stroke-width="1"></path><path d="m14.5 14 0 7" fill="none" stroke="#000000" stroke-linecap="round" stroke-linejoin="round" stroke-width="1"></path><path d="m19.5 9 0 7" fill="none" stroke="#000000" stroke-linecap="round" stroke-linejoin="round" stroke-width="1"></path><path d="M19 16h1s0.5 0 0.5 0.5v2s0 0.5 -0.5 0.5h-1s-0.5 0 -0.5 -0.5v-2s0 -0.5 0.5 -0.5" fill="none" stroke="#000000" stroke-linecap="round" stroke-linejoin="round" stroke-width="1"></path><path d="m19.5 19 0 2" fill="none" stroke="#000000" stroke-linecap="round" stroke-linejoin="round" stroke-width="1"></path><path d="M21.5 5a1 1 0 0 0 -1 -1h-17a1 1 0 0 0 0 2h17a1 1 0 0 0 1 -1Z" fill="none" stroke="#000000" stroke-linecap="round" stroke-linejoin="round" stroke-width="1"></path></svg>