<svg xmlns="http://www.w3.org/2000/svg" version="1.1" xmlns:xlink="http://www.w3.org/1999/xlink" xmlns:svgjs="http://svgjs.com/svgjs" viewBox="0 0 40 40" width="40" height="40"><title>Exported from Streamline App (https://app.streamlineicons.com)</title><g transform="matrix(1.6666666666666667,0,0,1.6666666666666667,0,0)"><path d="M4.5,3h15C20.328,3,21,3.672,21,4.5v1C21,6.328,20.328,7,19.5,7h-15C3.672,7,3,6.328,3,5.5v-1C3,3.672,3.672,3,4.5,3z M4.5,10h15c0.828,0,1.5,0.672,1.5,1.5v1c0,0.828-0.672,1.5-1.5,1.5h-15C3.672,14,3,13.328,3,12.5v-1C3,10.672,3.672,10,4.5,10z M4.5,17h15c0.828,0,1.5,0.672,1.5,1.5v1c0,0.828-0.672,1.5-1.5,1.5h-15C3.672,21,3,20.328,3,19.5v-1C3,17.672,3.672,17,4.5,17z" stroke="none" fill="#adb5bd" stroke-width="0" stroke-linecap="round" stroke-linejoin="round"></path></g></svg>