<svg xmlns="http://www.w3.org/2000/svg" viewBox="0 0 24 24" height="24" width="24" id="Business-Deal-Handshake-1--Streamline-Streamline--3.0.svg"><desc>Business Deal Handshake 1 Streamline Icon: https://streamlinehq.com</desc><defs></defs><title>business-deal-handshake-1</title><path d="m14.5 8.25 -3.566 1.172a1.187 1.187 0 0 1 -0.9 -2.189l3.455 -1.727A2.427 2.427 0 0 1 15.4 5.4l5.1 1.85v7l-6.006 1.141" fill="none" stroke="#000000" stroke-linecap="round" stroke-linejoin="round" stroke-width="1"></path><path d="M3.5 14.25H6l3.59 4.024a1.371 1.371 0 0 0 2.41 -0.895v-0.629l0.179 0.072A1.693 1.693 0 0 0 14.5 15.25h0.5a1.5 1.5 0 0 0 1.2 -2.4L13 8.75" fill="none" stroke="#000000" stroke-linecap="round" stroke-linejoin="round" stroke-width="1"></path><path d="m10.552 6.969 -0.366 -0.3a2.144 2.144 0 0 0 -2.07 -0.269L3.5 8.25" fill="none" stroke="#000000" stroke-linecap="round" stroke-linejoin="round" stroke-width="1"></path><path d="M0.5 6.25h2a1 1 0 0 1 1 1v7a1 1 0 0 1 -1 1h-2" fill="none" stroke="#000000" stroke-linecap="round" stroke-linejoin="round" stroke-width="1"></path><path d="M23.5 15.25h-2a1 1 0 0 1 -1 -1v-7a1 1 0 0 1 1 -1h2" fill="none" stroke="#000000" stroke-linecap="round" stroke-linejoin="round" stroke-width="1"></path><path d="m12 16.75 -1 -1" fill="none" stroke="#000000" stroke-linecap="round" stroke-linejoin="round" stroke-width="1"></path><path d="m13 13.75 1.5 1.5" fill="none" stroke="#000000" stroke-linecap="round" stroke-linejoin="round" stroke-width="1"></path></svg>