<svg xmlns="http://www.w3.org/2000/svg" viewBox="0 0 24 24" id="Login-Keys--Streamline-Streamline--3.0.svg" height="24" width="24"><desc>Login Keys Streamline Icon: https://streamlinehq.com</desc><defs></defs><title>login-keys</title><path d="M13.5 9a5.5 5.5 0 1 0 -7 5.287V15.5l-1 1 1 1v1l-1 1 1 1V22L8 23.5 9.5 22v-7.713A5.5 5.5 0 0 0 13.5 9Z" fill="none" stroke="#000000" stroke-linecap="round" stroke-linejoin="round" stroke-width="1"></path><path d="M6 7.498a2 2 0 1 0 4 0 2 2 0 1 0 -4 0" fill="none" stroke="#000000" stroke-linecap="round" stroke-linejoin="round" stroke-width="1"></path><path d="M9.5 15.013a5.507 5.507 0 0 0 5.425 0.033L16 16v1.5h1.5l0.5 0.525V19.5h1.317l1.062 1H22.5v-2.121l-5.454 -5.454a5.5 5.5 0 0 0 -5.5 -8.133" fill="none" stroke="#000000" stroke-linecap="round" stroke-linejoin="round" stroke-width="1"></path><path d="M8 7V2.5a2 2 0 0 1 4 0v2.253" fill="none" stroke="#000000" stroke-linecap="round" stroke-linejoin="round" stroke-width="1"></path></svg>