<svg xmlns="http://www.w3.org/2000/svg" version="1.1" xmlns:xlink="http://www.w3.org/1999/xlink" xmlns:svgjs="http://svgjs.com/svgjs" viewBox="0 0 140 140" width="140" height="140"><g transform="matrix(5.833333333333333,0,0,5.833333333333333,0,0)"><path d="M13.5,9a5.5,5.5,0,1,0-7,5.287V15.5l-1,1,1,1v1l-1,1,1,1V22L8,23.5,9.5,22V14.287A5.5,5.5,0,0,0,13.5,9Z" fill="none" stroke="#ffffff" stroke-linecap="round" stroke-linejoin="round"></path><path d="M6.000 7.498 A2.000 2.000 0 1 0 10.000 7.498 A2.000 2.000 0 1 0 6.000 7.498 Z" fill="none" stroke="#ffffff" stroke-linecap="round" stroke-linejoin="round"></path><path d="M9.5,15.013a5.507,5.507,0,0,0,5.425.033L16,16v1.5h1.5l.5.525V19.5h1.317l1.062,1H22.5V18.379l-5.454-5.454a5.5,5.5,0,0,0-5.5-8.133" fill="none" stroke="#ffffff" stroke-linecap="round" stroke-linejoin="round"></path><path d="M8,7V2.5a2,2,0,0,1,4,0V4.753" fill="none" stroke="#ffffff" stroke-linecap="round" stroke-linejoin="round"></path></g></svg>