<?xml version="1.0" encoding="utf-8"?>
<!-- Generator: Adobe Illustrator 15.0.0, SVG Export Plug-In . SVG Version: 6.00 Build 0)  -->
<!DOCTYPE svg PUBLIC "-//W3C//DTD SVG 1.1//EN" "http://www.w3.org/Graphics/SVG/1.1/DTD/svg11.dtd">
<svg xmlns="http://www.w3.org/2000/svg" xmlns:xlink="http://www.w3.org/1999/xlink" version="1.1" id="Layer_1" x="0px" y="0px" width="283.464px" height="167.806px" viewBox="0 0 283.464 167.806" enable-background="new 0 0 283.464 167.806" xml:space="preserve">
<rect x="22.877" y="100.628" fill="#494C40" width="3.209" height="8.502"/>
<g>
	<defs>
		<rect id="SVGID_1_" x="-70.867" y="-142.102" width="425.197" height="425.197"/>
	</defs>
	<clipPath id="SVGID_2_">
		<use xlink:href="#SVGID_1_" overflow="visible"/>
	</clipPath>
	<path clip-path="url(#SVGID_2_)" fill="#494C40" d="M17.571,103.643H6.041c-1.794,0-2.738,1.086-2.738,2.784v4.295   c0,1.605,1.086,2.359,2.643,2.785c3.917,1.086,4.672,1.322,8.448,2.407c2.737,0.802,4.908,2.171,4.908,5.145v5.7   c0,3.022-2.171,5.238-5.191,5.238H0.91l0.803-3.066h11.548c1.794,0,2.738-1.038,2.738-2.737v-4.614c0-1.56-0.803-2.268-2.643-2.786   c-3.681-1.038-4.861-1.369-8.401-2.36C2.123,115.631,0,114.215,0,111.336v-5.475c0-3.068,2.217-5.239,5.238-5.239H18.42   L17.571,103.643z"/>
	<rect x="22.877" y="112.191" clip-path="url(#SVGID_2_)" fill="#494C40" width="3.209" height="19.808"/>
	<path clip-path="url(#SVGID_2_)" fill="#494C40" d="M50.293,131.997v-22.862h3.163v1.84c2.643-1.322,6.324-2.313,8.685-2.313   c3.161,0,5.144,2.076,5.144,5.146v18.189h-3.21v-17.482c0-1.793-0.944-2.738-2.737-2.738c-1.274,0-3.399,0.567-5.097,1.181   c-1.605,0.52-2.738,1.273-2.738,2.831v16.209H50.293z"/>
	<path clip-path="url(#SVGID_2_)" fill="#494C40" d="M90.287,109.125h3.634v-7.617l3.209-0.891v8.508h5.664l-1.031,3.069H97.13   v14.188c0,1.698,1.038,2.784,2.738,2.784h2.926v2.831h-3.776c-2.926,0-5.097-2.171-5.097-5.144v-14.66h-3.634V109.125z"/>
	<path clip-path="url(#SVGID_2_)" fill="#494C40" d="M122.9,109.127V132h-3.164v-1.841c-2.644,1.322-6.327,2.314-8.69,2.314   c-3.163,0-5.146-2.077-5.146-5.146v-18.201h3.21v17.493c0,1.793,0.944,2.737,2.739,2.737c1.276,0,3.403-0.567,5.102-1.179   c1.603-0.521,2.738-1.276,2.738-2.832v-16.22H122.9z"/>
	<path clip-path="url(#SVGID_2_)" fill="#494C40" d="M126.521,131.994v-17.628c0-3.066,2.217-5.237,5.19-5.237h8.796l-0.802,3.067   h-7.145c-1.699,0-2.736,1.038-2.736,2.736v17.062H126.521z"/>
	<path clip-path="url(#SVGID_2_)" fill="#494C40" d="M87.839,114.368c-0.001-3.057-2.206-5.223-5.165-5.237v-0.003l-6.727,0.001   c-2.974,0-5.097,2.171-5.097,5.238l-0.006,12.956c0,3.068,1.982,5.145,5.145,5.145c2.364,0,6.048-0.991,8.691-2.313v1.841h3.162   L87.839,114.368z M81.896,128.172c-1.699,0.612-3.826,1.18-5.103,1.18c-1.794,0-2.738-0.944-2.738-2.737v-11.73   c0.02-1.67,1.06-2.688,2.742-2.688h1.367v0.002l3.635-0.001c1.698,0,2.831,1.038,2.832,2.738l0.003,10.405   C84.633,126.898,83.5,127.653,81.896,128.172"/>
	<path clip-path="url(#SVGID_2_)" fill="#494C40" d="M46.711,114.372c-0.001-3.057-2.206-5.222-5.166-5.237v-0.004l-6.727,0.002   c-2.973,0-5.097,2.171-5.097,5.238l-0.006,12.955c0,3.068,1.982,5.146,5.145,5.146c2.364,0,6.048-0.991,8.691-2.313v5.266   c0,1.698-0.898,2.736-2.598,2.736h-8.816l0.788,2.832h7.792c3.446,0,5.994-1.462,5.994-5.145V114.372z M43.504,125.343   c0,1.559-1.133,2.313-2.737,2.833c-1.7,0.612-3.827,1.18-5.103,1.18c-1.795,0-2.739-0.944-2.739-2.737v-11.729   c0.02-1.67,1.06-2.69,2.743-2.69h1.366v0.003h3.636c1.698,0,2.831,1.038,2.832,2.737L43.504,125.343z"/>
	<path clip-path="url(#SVGID_2_)" fill="#494C40" d="M266.473,131.997v-22.862h3.163v1.84c2.643-1.322,6.323-2.313,8.684-2.313   c3.161,0,5.145,2.076,5.145,5.146v18.189h-3.21v-17.482c0-1.793-0.944-2.738-2.737-2.738c-1.274,0-3.398,0.567-5.098,1.181   c-1.604,0.52-2.737,1.273-2.737,2.831v16.209H266.473z"/>
	<path clip-path="url(#SVGID_2_)" fill="#494C40" d="M201.142,109.127V132h-3.163v-1.841c-2.644,1.322-6.328,2.314-8.691,2.314   c-3.163,0-5.145-2.077-5.145-5.146v-18.201h3.209v17.493c0,1.793,0.943,2.737,2.739,2.737c1.276,0,3.403-0.567,5.103-1.179   c1.604-0.521,2.738-1.276,2.738-2.832v-16.22H201.142z"/>
	<path clip-path="url(#SVGID_2_)" fill="#494C40" d="M167.291,131.994v-17.628c0-3.066,2.217-5.237,5.19-5.237h8.799l-0.803,3.067   h-7.146c-1.699,0-2.737,1.038-2.737,2.736v17.062H167.291z"/>
	<path clip-path="url(#SVGID_2_)" fill="#494C40" d="M221.966,114.363c0-3.066-2.209-5.238-5.183-5.238h-6.728l-0.001,0.004   c-2.959,0.014-5.163,2.181-5.163,5.237l-0.002,26.627h3.292l0.014-10.829c2.454,1.318,6.22,2.307,8.621,2.307   c3.305,0,5.146-2.077,5.146-5.146L221.966,114.363z M218.671,126.049c0,2.078-0.484,3.399-2.656,3.399   c-1.273,0-3.397-0.566-5.097-1.18c-1.548-0.546-2.646-1.233-2.723-2.679v-10.657c0-1.699,1.037-2.738,2.737-2.738h3.634v-0.002   h1.368c1.698,0,2.736,1.038,2.736,2.737V126.049z"/>
	<path clip-path="url(#SVGID_2_)" fill="#494C40" d="M242.587,114.363c0-3.066-2.209-5.238-5.183-5.238h-6.727l-0.001,0.004   c-2.96,0.014-5.164,2.181-5.164,5.237l-0.001,26.627h3.291l0.014-10.829c2.455,1.318,6.22,2.307,8.622,2.307   c3.305,0,5.145-2.077,5.145-5.146L242.587,114.363z M239.292,126.049c0,2.078-0.484,3.399-2.655,3.399   c-1.274,0-3.398-0.566-5.098-1.18c-1.548-0.546-2.646-1.233-2.723-2.679v-10.657c0-1.699,1.039-2.738,2.738-2.738h3.634v-0.002   h1.367c1.698,0,2.736,1.038,2.736,2.737V126.049z"/>
	<path clip-path="url(#SVGID_2_)" fill="#494C40" d="M160.643,120.117v6.075c0,1.698-1.039,2.737-2.738,2.737l-8.303,0.002   c-1.698,0-2.735-1.038-2.735-2.736l0.011-19.765c0-1.7,1.037-2.794,2.736-2.794h11.545l0.85-3.014l-13.272,0.003   c-2.958,0.014-5.161,2.18-5.161,5.237l-0.001,20.899c0,3.065,2.208,5.238,5.18,5.238h10.028v-0.004   c2.96-0.016,5.164-2.181,5.164-5.237l0.001-8.19L160.643,120.117z"/>
	<path clip-path="url(#SVGID_2_)" fill="#494C40" d="M257.979,109.129l-6.727-0.001v0.003c-2.961,0.014-5.165,2.18-5.166,5.236   v12.48c0,3.681,2.548,5.144,5.993,5.144h9.167l-0.787-2.832h-8.616c-1.699,0-2.55-1.038-2.55-2.735v-3.244l8.617-0.002   c2.96-0.016,5.164-2.181,5.166-5.238v-3.573C263.077,111.3,260.953,109.129,257.979,109.129 M259.867,117.374   c-0.001,1.698-1.134,2.736-2.832,2.736l-7.741,0.002l0.002-5.177c0.001-1.699,1.133-2.737,2.832-2.737l5.002-0.002   c1.682,0,2.722,1.021,2.742,2.691L259.867,117.374z"/>
	<polygon clip-path="url(#SVGID_2_)" fill="#D1E8FA" points="152.221,16.874 151.512,10.648 111.588,10.649 111.588,49.842    122.23,60.241 122.23,20.289  "/>
	<polygon clip-path="url(#SVGID_2_)" fill="#77BEEE" points="161.148,39.947 131.156,43.364 131.865,49.59 151.474,49.59    171.791,49.588 171.791,10.397 161.148,0  "/>
	<polygon clip-path="url(#SVGID_2_)" fill="#A7D3F5" points="161.148,39.947 161.148,0.002 121.981,0.001 111.588,10.648    151.512,10.648 154.927,40.655  "/>
	<polygon clip-path="url(#SVGID_2_)" fill="#009DE0" points="122.23,20.289 122.23,60.24 161.396,60.24 171.791,49.59    131.865,49.59 128.45,19.582  "/>
	<path clip-path="url(#SVGID_2_)" fill="#494C40" d="M210.386,149.483c3.163,0,5.497,2.058,5.497,5.321v2.762   c0,3.814-2.46,5.521-5.773,5.521c-1.631,0-3.563-0.351-5.045-0.902c-0.226-0.075-0.301-0.2-0.301-0.428v-16.541   c0-0.251,0.125-0.377,0.376-0.377h2.159c0.251,0,0.376,0.126,0.376,0.377v4.819C208.454,149.708,209.382,149.483,210.386,149.483    M212.921,157.589v-2.785c0-1.907-1.029-2.735-2.836-2.735c-0.954,0-1.782,0.251-2.41,0.652v7.403   c0.603,0.251,1.506,0.353,2.359,0.353C211.842,160.477,212.921,159.724,212.921,157.589"/>
	<path clip-path="url(#SVGID_2_)" fill="#494C40" d="M226.5,150.135c0-0.227,0.125-0.352,0.376-0.352h2.159   c0.251,0,0.376,0.125,0.376,0.352v11.822c0,3.865-1.757,5.849-5.597,5.849c-2.134,0-3.615-0.502-4.92-1.581   c-0.201-0.151-0.201-0.302-0.075-0.503l1.079-1.53c0.125-0.201,0.301-0.251,0.477-0.125c0.954,0.651,2.059,1.153,3.414,1.153   c1.732,0,2.836-0.753,2.735-3.263c-0.803,0.251-1.757,0.451-2.686,0.451c-2.61,0-5.371-1.656-5.371-5.12v-7.153   c0-0.227,0.15-0.352,0.376-0.352h2.184c0.227,0,0.352,0.125,0.352,0.352v7.027c0,1.934,1.355,2.612,2.861,2.612   c0.854,0.023,1.707-0.202,2.26-0.502V150.135z"/>
	<path clip-path="url(#SVGID_2_)" fill="#494C40" d="M238.372,162.786c-0.251,0-0.376-0.126-0.376-0.377v-11.496   c0-0.199,0.075-0.351,0.275-0.45c1.456-0.628,3.213-0.98,4.995-0.98c3.464,0,5.823,1.607,5.823,5.623v7.304   c0,0.251-0.125,0.377-0.351,0.377h-2.185c-0.226,0-0.376-0.126-0.376-0.377v-7.254c0-2.358-1.078-3.062-2.912-3.062   c-0.854,0-1.782,0.126-2.359,0.275v10.04c0,0.251-0.125,0.377-0.376,0.377H238.372z"/>
	<path clip-path="url(#SVGID_2_)" fill="#494C40" d="M262.669,157.163c0,0.228-0.126,0.353-0.377,0.353h-7.631v0.703   c0,1.53,1.055,2.309,2.661,2.309c1.556,0,2.61-0.527,3.539-1.155c0.176-0.125,0.377-0.1,0.502,0.075l1.03,1.381   c0.149,0.176,0.125,0.377-0.076,0.527c-1.331,1.054-2.962,1.731-5.096,1.731c-2.836,0-5.497-1.556-5.497-4.895v-3.564   c0-3.688,2.761-5.146,5.522-5.146c2.735,0,5.422,1.457,5.422,5.146V157.163z M257.248,152.042c-1.481,0-2.586,0.703-2.586,2.562   v0.651h5.171v-0.651C259.833,152.771,258.653,152.042,257.248,152.042"/>
	<path clip-path="url(#SVGID_2_)" fill="#494C40" d="M270.098,160.426c0.227,0,0.628-0.024,1.029-0.051   c0.251,0,0.401,0.126,0.401,0.353v1.907c0,0.2-0.1,0.376-0.351,0.401c-0.427,0.026-0.954,0.05-1.331,0.05   c-2.61,0-4.645-1.33-4.645-4.643v-11.472c0-0.226,0.126-0.352,0.378-0.352h1.907c0.201,0,0.352,0.126,0.377,0.327l0.226,3.012   h2.686c0.227,0,0.377,0.125,0.377,0.353v1.832c0,0.225-0.15,0.351-0.377,0.351h-2.66v5.748   C268.116,159.623,268.818,160.426,270.098,160.426"/>
	<path clip-path="url(#SVGID_2_)" fill="#494C40" d="M278.104,163.086c-1.706,0-3.514-0.477-5.095-1.631   c-0.227-0.126-0.227-0.302-0.101-0.502l0.954-1.632c0.125-0.225,0.275-0.251,0.502-0.1c1.129,0.828,2.484,1.279,3.79,1.279   c1.305,0,2.334-0.502,2.334-1.456c0-1.004-1.205-1.279-2.334-1.479c-1.883-0.353-5.07-1.13-5.07-4.167   c0-2.787,2.636-3.941,5.321-3.941c1.431,0,2.886,0.352,4.367,1.154c0.201,0.101,0.251,0.301,0.126,0.502l-0.954,1.607   c-0.125,0.176-0.301,0.225-0.502,0.126c-0.929-0.502-2.059-0.829-3.188-0.829c-1.481,0-2.284,0.552-2.284,1.381   c0,1.029,1.129,1.28,2.786,1.605c2.058,0.377,4.669,1.029,4.669,3.916C283.426,161.732,281.117,163.086,278.104,163.086"/>
</g>
</svg>
