<?xml version="1.0" encoding="utf-8"?>
<!-- Generator: Adobe Illustrator 15.0.0, SVG Export Plug-In . SVG Version: 6.00 Build 0)  -->
<!DOCTYPE svg PUBLIC "-//W3C//DTD SVG 1.1//EN" "http://www.w3.org/Graphics/SVG/1.1/DTD/svg11.dtd">
<svg version="1.1" id="Layer_1" xmlns="http://www.w3.org/2000/svg" xmlns:xlink="http://www.w3.org/1999/xlink" x="0px" y="0px"
	 width="1040.614px" height="275.247px" viewBox="66 188.381 1040.614 275.247"
	 enable-background="new 66 188.381 1040.614 275.247" xml:space="preserve">
<g id="layer101">
	<path fill="#000000" d="M525.5,463c-26.1-4-42-18.4-46.9-42.2c-1.3-6.399-1.601-16-1.601-57.3V314h-14.5H448v-21v-21h14.5H477
		v-25.5V221h25.5H528v25.5V272h21h21v21v21l-20.699,0.2l-20.801,0.3V359c0,44.1,0,44.5,2.199,48.7c3.602,6.6,10.4,10.3,19.102,10.3
		c5,0,15.199-2.4,19.398-4.6l2.801-1.5v23c0,22.198-0.1,23.1-2.1,24.1C563.5,462.5,537.301,464.8,525.5,463z"/>
	<path fill="#000000" d="M66,331V202h25h25.1l7.7,11.9c4.199,6.5,21.699,33.699,38.699,60.399c17.101,26.7,31.4,48.5,31.801,48.4
		c0.399-0.101,18-27.2,39-60.2l38.3-60l24.7-0.3L321,202v129v129h-26.5H268l-0.199-82.7l-0.301-82.7l-36.199,54.7
		C211.4,379.4,194.5,404,193.801,404c-0.7-0.1-17.7-24.6-37.801-54.6l-36.5-54.5l-0.5,82.3l-0.5,82.3l-26.2,0.3L66,460V331z"/>
	<path fill="#000000" d="M368,366v-94h26h26v94v94h-26h-26V366z"/>
	<path fill="#000000" d="M639.901,459.3c-0.602-4,1.6-18.2,4.799-30.8c11.201-45,40-73.5,83.801-83c10.1-2.2,33-3,45.199-1.6
		c26.602,3.1,46.4,12.3,63.9,29.6c14,13.9,21.398,26.1,28.1,46.4C869.1,430.3,873,450,873,456.6v3.4H756.5
		C692.401,460,640,459.7,639.901,459.3z"/>
	<path fill="#000000" d="M907,326V192h24.801c39.1,0,56.699,1.7,79.699,7.7c31.6,8.2,57.9,25.7,74.301,49.5
		c7.699,11.2,15.301,29.6,18.898,46c2.301,10.399,2.602,49.6,0.5,59.3c-6.199,28.3-16.1,47.7-33.1,64.6
		c-14.699,14.7-33.4,25.4-56.102,32.2c-22.199,6.7-40.799,8.7-80.699,8.7H907V326z"/>
	<path fill="#000000" d="M744,316.5c-22.801-4.6-40.4-19.8-48.801-42.3c-3.299-9-4.199-26.601-1.799-36.2
		c2.299-9.2,8.699-21.5,14.6-28.2c6.9-7.8,18.199-15.1,28.301-18.399c10.5-3.5,27.6-4,37.199-1.101c28.801,8.8,47.5,33.4,47.5,62.7
		c0,25-13.801,46.9-36.5,58C771.301,317.5,757.801,319.3,744,316.5z"/>
	<path fill="#000000" d="M384.2,248.2c-26-9.3-28.101-44.7-3.399-56.9c7.601-3.7,18.199-3.899,25.699-0.5
		c6.5,3,12.801,9.2,15.7,15.601c3.101,7.1,3.101,18.1,0,25.199C415.9,245.7,398.5,253.3,384.2,248.2z"/>
</g>
<g id="layer102">
	<path fill="#000000" d="M561.2,461.6C572.901,459,572,461.4,572,434.9v-23l-2.801,1.5C565,415.6,554.801,418,549.801,418
		c-8.701,0-15.5-3.7-19.102-10.3c-2.199-4.2-2.199-4.601-2.199-48.7v-44.5l20.801-0.3L570,314v-21v-21h-21h-21v-25.5V221h-25.5H477
		v25.5V272h-14.5H448v21v21h14.5H477v49.5c0,41.3,0.301,50.9,1.601,57.3c4.899,23.8,20.8,38.2,46.9,42.2
		C533.2,464.2,552.6,463.4,561.2,461.6z M119,377.2l0.5-82.3l36.5,54.5c20.101,30,37.101,54.5,37.801,54.6
		c0.699,0,17.6-24.6,37.5-54.7l36.199-54.7l0.301,82.7L268,460h26.5H321V331V202l-24.699,0.2l-24.7,0.3l-38.3,60
		c-21,33-38.601,60.1-39,60.2c-0.4,0.1-14.7-21.7-31.801-48.4c-17-26.7-34.5-53.899-38.699-60.399l-7.7-11.9H91H66v129v129l26.3-0.2
		l26.2-0.3L119,377.2z M420,366v-94h-26h-26v94v94h26h26V366z M873,456.6c0-6.6-3.9-26.3-7.301-36.699
		c-6.699-20.301-14.1-32.5-28.1-46.399c-17.5-17.3-37.301-26.5-63.9-29.601c-12.199-1.399-35.1-0.601-45.199,1.601
		c-43.801,9.5-72.6,38-83.801,83c-3.199,12.6-5.398,26.8-4.799,30.8c0.1,0.4,52.5,0.7,116.6,0.7H873V456.6z M974.5,459
		c16.301-1.5,28.6-3.8,41.5-7.7c43.801-13.1,73.9-42,85.301-81.8c4.801-16.9,5.199-20,5.199-43.5c0-18.1-0.4-24.1-1.801-30.8
		C1092.5,239.7,1055.901,207,993,195.6c-12.801-2.399-33.699-3.6-61.199-3.6H907v134v134h28.301C950.801,460,968.5,459.5,974.5,459z
		 M768.801,316.5c24.699-4.9,45.699-25.3,50.699-49.3c7.301-34.101-12.1-66.601-46-76.9c-9.6-2.899-26.699-2.399-37.199,1.101
		C726.2,194.7,714.901,202,708,209.8c-5.9,6.7-12.301,19-14.6,28.2c-2.4,9.6-1.5,27.2,1.799,36.2c8.4,22.5,26,37.7,48.801,42.3
		C752.901,318.3,759.7,318.3,768.801,316.5z M406.6,247.1c11.2-5,17.801-15.3,17.801-28.1s-6.5-23-17.9-28.2
		c-7.5-3.399-18.1-3.2-25.699,0.5c-24.7,12.2-22.601,47.601,3.399,56.9C390.9,250.5,399.7,250.1,406.6,247.1z"/>
</g>
</svg>
