<?xml version="1.0" encoding="utf-8"?>
<!-- Generator: Adobe Illustrator 24.0.2, SVG Export Plug-In . SVG Version: 6.00 Build 0)  -->
<svg version="1.1" id="Layer_1" xmlns="http://www.w3.org/2000/svg" xmlns:xlink="http://www.w3.org/1999/xlink" x="0px" y="0px"
	 viewBox="0 0 61 16" style="enable-background:new 0 0 61 16;" xml:space="preserve">
<style type="text/css">
	.st0{clip-path:url(#SVGID_2_);fill:#ffffff;}
</style>
<g>
	<defs>
		<path id="SVGID_1_" d="M19.2,0c1,0,1.8,0.8,1.8,1.8c0,1-0.8,1.8-1.8,1.8c-1,0-1.8-0.8-1.8-1.8C17.4,0.8,18.2,0,19.2,0z M40.4,0
			c2.1,0,3.8,1.7,3.8,3.8c0,2.1-1.7,3.8-3.8,3.8c-2.1,0-3.8-1.7-3.8-3.8C36.6,1.7,38.3,0,40.4,0z M20.7,4.9v10.9h-3V4.9H20.7z
			 M2.9,0.8l4.6,7.1l4.5-7.1h2.9v15h-3.1V6.1l-4.3,6.4H7.4L3.1,6.1v9.7H0v-15H2.9z M40.4,9c3.6,0,6.5,2,6.9,6.8H33.6
			C34,11,36.9,9,40.4,9z M51.9,0.2C58.3,0.2,61,3.7,61,8c0,4.3-2.7,7.8-9.1,7.8h-2.6V0.2H51.9z M27.1,1.9v3h2.4v2.4h-2.4v4.8
			c0,0.9,0.5,1.2,1.3,1.2c0.5,0,1-0.1,1.3-0.4v2.7c-0.4,0.2-1.2,0.3-2,0.3c-2.2,0-3.6-1.1-3.6-3.5V7.3h-1.7V4.9h1.7v-3H27.1z"/>
	</defs>
	<clipPath id="SVGID_2_">
		<use xlink:href="#SVGID_1_"  style="overflow:visible;"/>
	</clipPath>
	<rect x="0" y="-0.6" class="st0" width="62" height="18"/>
</g>
</svg>
