<svg xmlns="http://www.w3.org/2000/svg" version="1.1" xmlns:xlink="http://www.w3.org/1999/xlink" xmlns:svgjs="http://svgjs.com/svgjs" viewBox="0 0 40 40" width="40" height="40"><title>Exported from Streamline App (https://app.streamlineicons.com)</title><g transform="matrix(1.6666666666666667,0,0,1.6666666666666667,0,0)"><path d="M 15.25,4.5c0.138,0,0.25,0.112,0.25,0.25S15.388,5,15.25,5S15,4.888,15,4.75S15.112,4.5,15.25,4.5 " stroke="#ffffff" fill="none" stroke-width="1" stroke-linecap="round" stroke-linejoin="round"></path><path d="M 19.75,4.5 C19.888,4.5,20,4.612,20,4.75S19.888,5,19.75,5S19.5,4.888,19.5,4.75S19.612,4.5,19.75,4.5 " stroke="#ffffff" fill="none" stroke-width="1" stroke-linecap="round" stroke-linejoin="round"></path><path d="M 19.5,8c0,1.105-0.895,2-2,2 s-2-0.895-2-2H19.5z " stroke="#ffffff" fill="none" stroke-width="1" stroke-linecap="round" stroke-linejoin="round"></path><path d="M 17.433,0.5c-3.346-0.004-6.062,2.706-6.066,6.052c-0.001,1.133,0.315,2.245,0.914,3.207L10.5,13.5 l3.741-1.782c2.846,1.765,6.584,0.888,8.349-1.959s0.888-6.584-1.959-8.349C19.671,0.815,18.563,0.499,17.433,0.5z " stroke="#ffffff" fill="none" stroke-width="1" stroke-linecap="round" stroke-linejoin="round"></path><path d="M 8.612,12.813 c-0.637-0.686-1.249-1.386-1.828-2.093l0.708-0.707c0.781-0.781,0.781-2.047,0-2.828L5.369,5.064c-0.781-0.781-2.047-0.781-2.828,0 L1.378,6.228C0.371,7.235,0.213,8.813,1,10c3.424,5.156,7.844,9.576,13,13c1.188,0.786,2.765,0.628,3.774-0.378l1.164-1.163 c0.781-0.781,0.781-2.047,0-2.828l-2.121-2.123c-0.781-0.781-2.047-0.781-2.828-0.001c0,0,0,0-0.001,0.001l-0.707,0.707 c-0.706-0.579-1.407-1.191-2.094-1.828" stroke="#ffffff" fill="none" stroke-width="1" stroke-linecap="round" stroke-linejoin="round"></path></g></svg>