<svg xmlns="http://www.w3.org/2000/svg" fill="none" viewBox="0 0 24 24" height="24" width="24" id="Phone-Action-Ring-1--Streamline-Streamline--3.0.svg"><desc>Phone Action Ring 1 Streamline Icon: https://streamlinehq.com</desc><path stroke="#000000" stroke-linecap="round" stroke-linejoin="round" d="M15.5 19.5h-13" stroke-width="1"></path><path stroke="#000000" stroke-linecap="round" stroke-linejoin="round" d="M15.5 15v6.5a2 2 0 0 1 -2 2h-9a2 2 0 0 1 -2 -2v-19a2 2 0 0 1 2 -2h6" stroke-width="1"></path><path stroke="#000000" stroke-linecap="round" stroke-linejoin="round" d="M21 9.5a5.087 5.087 0 0 1 -1.5 -3.333V4.5a4 4 0 1 0 -8 0v1.667A5.087 5.087 0 0 1 10 9.5h11Z" stroke-width="1"></path><path stroke="#000000" stroke-linecap="round" stroke-linejoin="round" d="M14.214 11.5a1.327 1.327 0 0 0 2.572 0" stroke-width="1"></path><path stroke="#000000" d="M9 21.75a0.25 0.25 0 1 1 0 -0.5" stroke-width="1"></path><path stroke="#000000" d="M9 21.75a0.25 0.25 0 1 0 0 -0.5" stroke-width="1"></path></svg>