<svg xmlns="http://www.w3.org/2000/svg" fill="none" viewBox="0 0 24 24" height="24" width="24" id="Phone-Vibrate--Streamline-Streamline--3.0.svg"><desc>Phone Vibrate Streamline Icon: https://streamlinehq.com</desc><path stroke="#000000" stroke-linecap="round" stroke-linejoin="round" d="M18.5 19.5h-13" stroke-width="1"></path><path stroke="#000000" stroke-linecap="round" stroke-linejoin="round" d="M16.5 0.5h-9a2 2 0 0 0 -2 2v19a2 2 0 0 0 2 2h9a2 2 0 0 0 2 -2v-19a2 2 0 0 0 -2 -2Z" stroke-width="1"></path><path stroke="#000000" stroke-linecap="round" stroke-linejoin="round" d="M0.5 18.5 2 17 0.5 15.5 2 14 0.5 12.5 2 11 0.5 9.5 2 8 0.5 6.5 2 5 0.5 3.5" stroke-width="1"></path><path stroke="#000000" stroke-linecap="round" stroke-linejoin="round" d="M23.5 18.5 22 17l1.5 -1.5L22 14l1.5 -1.5L22 11l1.5 -1.5L22 8l1.5 -1.5L22 5l1.5 -1.5" stroke-width="1"></path><path stroke="#000000" d="M12 21.75a0.25 0.25 0 1 1 0 -0.5" stroke-width="1"></path><path stroke="#000000" d="M12 21.75a0.25 0.25 0 1 0 0 -0.5" stroke-width="1"></path></svg>