<svg xmlns="http://www.w3.org/2000/svg" fill="none" viewBox="0 0 24 24" id="App-Window-Two--Streamline-Streamline--3.0.svg" height="24" width="24"><desc>App Window Two Streamline Icon: https://streamlinehq.com</desc><path stroke="#000000" stroke-linecap="round" stroke-linejoin="round" d="M0.5 6.50391h20" stroke-width="1"></path><path stroke="#000000" stroke-linecap="round" stroke-linejoin="round" d="M18.5 2.50391h-16c-1.10457 0 -2 0.89543 -2 2V15.5039c0 1.1046 0.89543 2 2 2h16c1.1046 0 2 -0.8954 2 -2V4.50391c0 -1.10457 -0.8954 -2 -2 -2Z" stroke-width="1"></path><path stroke="#000000" stroke-linecap="round" stroke-linejoin="round" d="M20.5 10.5039h3" stroke-width="1"></path><path stroke="#000000" stroke-linecap="round" stroke-linejoin="round" d="M20.5 6.5h1c0.5304 0 1.0391 0.21071 1.4142 0.58579 0.3751 0.37507 0.5858 0.88378 0.5858 1.41421v11c0 0.5304 -0.2107 1.0391 -0.5858 1.4142S22.0304 21.5 21.5 21.5h-16c-0.53043 0 -1.03914 -0.2107 -1.41421 -0.5858C3.71071 20.5391 3.5 20.0304 3.5 19.5v-2" stroke-width="1"></path><path stroke="#000000" d="M3.5 4.75391c-0.13807 0 -0.25 -0.11193 -0.25 -0.25s0.11193 -0.25 0.25 -0.25" stroke-width="1"></path><path stroke="#000000" d="M3.5 4.75391c0.13807 0 0.25 -0.11193 0.25 -0.25s-0.11193 -0.25 -0.25 -0.25" stroke-width="1"></path><path stroke="#000000" d="M5.5 4.75391c-0.13807 0 -0.25 -0.11193 -0.25 -0.25s0.11193 -0.25 0.25 -0.25" stroke-width="1"></path><path stroke="#000000" d="M5.5 4.75391c0.13807 0 0.25 -0.11193 0.25 -0.25s-0.11193 -0.25 -0.25 -0.25" stroke-width="1"></path><g><path stroke="#000000" d="M7.5 4.75391c-0.13807 0 -0.25 -0.11193 -0.25 -0.25s0.11193 -0.25 0.25 -0.25" stroke-width="1"></path><path stroke="#000000" d="M7.5 4.75391c0.13807 0 0.25 -0.11193 0.25 -0.25s-0.11193 -0.25 -0.25 -0.25" stroke-width="1"></path></g></svg>