<svg xmlns="http://www.w3.org/2000/svg" version="1.1" xmlns:xlink="http://www.w3.org/1999/xlink" xmlns:svgjs="http://svgjs.com/svgjs" viewBox="0 0 140 140" width="140" height="140"><g transform="matrix(5.833333333333333,0,0,5.833333333333333,0,0)"><path d="M19.03 12.004L23.53 15.504 19.03 19.004" fill="none" stroke="#ffffff" stroke-linecap="round" stroke-linejoin="round"></path><path d="M23.53,15.5h-3.5a6,6,0,0,0-6,6v2" fill="none" stroke="#ffffff" stroke-linecap="round" stroke-linejoin="round"></path><path d="M1.03 4.504L21.03 4.504" fill="none" stroke="#ffffff" stroke-linecap="round" stroke-linejoin="round"></path><path d="M4.03 2.254L4.03 2.254" fill="none" stroke="#ffffff" stroke-linecap="round" stroke-linejoin="round"></path><path d="M4.03,2.254a.25.25,0,1,0,.25.25.25.25,0,0,0-.25-.25" fill="none" stroke="#ffffff" stroke-linecap="round" stroke-linejoin="round"></path><path d="M6.03 2.254L6.03 2.254" fill="none" stroke="#ffffff" stroke-linecap="round" stroke-linejoin="round"></path><path d="M6.03,2.254a.25.25,0,1,0,.25.25.25.25,0,0,0-.25-.25" fill="none" stroke="#ffffff" stroke-linecap="round" stroke-linejoin="round"></path><path d="M8.03 2.254L8.03 2.254" fill="none" stroke="#ffffff" stroke-linecap="round" stroke-linejoin="round"></path><path d="M8.03,2.254a.25.25,0,1,0,.25.25.25.25,0,0,0-.25-.25" fill="none" stroke="#ffffff" stroke-linecap="round" stroke-linejoin="round"></path><path d="M12.03,16.5h-9a2,2,0,0,1-2-2V2.5a2,2,0,0,1,2-2h16a2,2,0,0,1,2,2v8" fill="none" stroke="#ffffff" stroke-linecap="round" stroke-linejoin="round"></path></g></svg>