<svg xmlns="http://www.w3.org/2000/svg" fill="none" viewBox="0 0 24 24" id="App-Window-Next--Streamline-Streamline--3.0.svg" height="24" width="24"><desc>App Window Next Streamline Icon: https://streamlinehq.com</desc><path stroke="#000000" stroke-linecap="round" stroke-linejoin="round" d="m19 12 4.5 3.5L19 19" stroke-width="1"></path><path stroke="#000000" stroke-linecap="round" stroke-linejoin="round" d="M23.5 15.496H20a6 6 0 0 0 -6 6v2" stroke-width="1"></path><path stroke="#000000" stroke-linecap="round" stroke-linejoin="round" d="M1.03 4.504h20" stroke-width="1"></path><path stroke="#000000" stroke-linecap="round" stroke-linejoin="round" d="M12.03 16.5h-9a2 2 0 0 1 -2 -2v-12a2 2 0 0 1 2 -2h16a2 2 0 0 1 2 2v8" stroke-width="1"></path><path stroke="#000000" d="M4.03 2.754a0.25 0.25 0 0 1 0 -0.5" stroke-width="1"></path><path stroke="#000000" d="M4.03 2.754a0.25 0.25 0 0 0 0 -0.5" stroke-width="1"></path><g><path stroke="#000000" d="M6.03 2.754a0.25 0.25 0 0 1 0 -0.5" stroke-width="1"></path><path stroke="#000000" d="M6.03 2.754a0.25 0.25 0 0 0 0 -0.5" stroke-width="1"></path></g><g><path stroke="#000000" d="M8.03 2.754a0.25 0.25 0 0 1 0 -0.5" stroke-width="1"></path><path stroke="#000000" d="M8.03 2.754a0.25 0.25 0 0 0 0 -0.5" stroke-width="1"></path></g></svg>