<?xml version="1.0" encoding="utf-8"?>
<!-- Generator: Adobe Illustrator 15.0.0, SVG Export Plug-In . SVG Version: 6.00 Build 0)  -->
<!DOCTYPE svg PUBLIC "-//W3C//DTD SVG 1.1//EN" "http://www.w3.org/Graphics/SVG/1.1/DTD/svg11.dtd">
<svg version="1.1" id="Layer_1" xmlns="http://www.w3.org/2000/svg" xmlns:xlink="http://www.w3.org/1999/xlink" x="0px" y="0px"
	 width="522.344px" height="128.958px" viewBox="0 0 522.344 128.958" enable-background="new 0 0 522.344 128.958"
	 xml:space="preserve">
<g>
	<path fill="#0068FA" d="M171.766,59.605h34.097c3.025,0,5.753,0.424,8.181,1.27c2.427,0.848,4.487,2.019,6.175,3.517
		c1.688,1.499,2.973,3.337,3.853,5.519c0.879,2.183,1.319,4.576,1.319,7.179c0,2.605-0.37,4.805-1.107,6.594
		c-0.739,1.794-1.726,3.273-2.956,4.445c-1.233,1.171-2.64,2.053-4.223,2.638c-1.583,0.586-3.219,0.912-4.908,0.977v0.587
		c1.618,0,3.36,0.293,5.227,0.88c1.863,0.584,3.589,1.513,5.171,2.783c1.583,1.27,2.905,2.898,3.959,4.884
		c1.055,1.985,1.583,4.443,1.583,7.375c0,2.734-0.475,5.292-1.425,7.668c-0.951,2.381-2.27,4.446-3.958,6.201
		c-1.689,1.759-3.695,3.143-6.017,4.153c-2.323,1.012-4.856,1.514-7.601,1.514h-37.37V59.605L171.766,59.605z M185.701,88.03h17.206
		c2.535,0,4.503-0.635,5.912-1.905c1.407-1.271,2.112-3.043,2.112-5.323v-3.027c0-2.278-0.704-4.055-2.112-5.324
		c-1.409-1.27-3.378-1.905-5.912-1.905h-17.206V88.03z M185.701,116.845h19.424c2.673,0,4.751-0.636,6.229-1.904
		c1.479-1.271,2.217-3.11,2.217-5.52v-3.32c0-2.41-0.738-4.266-2.217-5.568c-1.478-1.304-3.554-1.955-6.229-1.955h-19.424V116.845
		L185.701,116.845z"/>
	<path fill="#0068FA" d="M244.711,127.786h-13.934v-68.18h33.252c3.379,0,6.404,0.489,9.08,1.464
		c2.673,0.977,4.942,2.393,6.809,4.249c1.865,1.855,3.308,4.088,4.329,6.691c1.017,2.604,1.53,5.503,1.53,8.694
		c0,4.687-1.145,8.726-3.431,12.11c-2.288,3.387-5.718,5.798-10.292,7.23l15.095,27.741h-15.518l-13.724-26.277h-13.195
		L244.711,127.786L244.711,127.786z M262.656,90.666c2.674,0,4.785-0.665,6.333-2.001c1.547-1.333,2.323-3.239,2.323-5.717v-4.493
		c0-2.476-0.775-4.361-2.323-5.667c-1.548-1.3-3.66-1.952-6.333-1.952h-17.946v19.829L262.656,90.666L262.656,90.666z"/>
	<path fill="#0068FA" d="M317.761,128.958c-4.857,0-9.254-0.749-13.195-2.245c-3.94-1.497-7.302-3.745-10.081-6.741
		c-2.783-2.995-4.945-6.674-6.494-11.037c-1.549-4.362-2.322-9.443-2.322-15.238c0-5.73,0.773-10.795,2.322-15.188
		c1.547-4.396,3.711-8.09,6.494-11.086c2.779-2.994,6.14-5.241,10.081-6.74c3.941-1.498,8.339-2.246,13.195-2.246
		c4.855,0,9.253,0.75,13.194,2.246c3.941,1.5,7.319,3.746,10.135,6.74c2.813,2.996,4.978,6.69,6.493,11.086
		c1.512,4.394,2.27,9.458,2.27,15.188c0,5.795-0.758,10.876-2.27,15.238c-1.515,4.363-3.68,8.042-6.493,11.037
		c-2.815,2.996-6.194,5.244-10.135,6.741C327.014,128.208,322.615,128.958,317.761,128.958z M317.761,117.528
		c5.276,0,9.483-1.626,12.615-4.884c3.129-3.256,4.698-7.813,4.698-13.674V88.419c0-5.86-1.569-10.416-4.698-13.673
		c-3.132-3.256-7.339-4.884-12.615-4.884c-5.277,0-9.485,1.629-12.614,4.884c-3.133,3.257-4.697,7.813-4.697,13.673V98.97
		c0,5.86,1.564,10.418,4.697,13.674C308.276,115.902,312.482,117.528,317.761,117.528z"/>
	<path fill="#0068FA" d="M376.771,96.918l-9.819,10.744v20.123h-13.933v-68.18h13.933v33.602h0.527l10.453-12.797l18.264-20.805
		h16.044L386.586,88.03l27.765,39.758h-16.574L376.771,96.918z"/>
	<path fill="#0068FA" d="M413.612,127.786v-68.18h48.562v11.427h-34.626v16.509h30.613V98.97h-30.613v17.387h34.626v11.429H413.612z
		"/>
	<path fill="#0068FA" d="M479.906,127.786h-13.935v-68.18h33.253c3.377,0,6.403,0.489,9.079,1.464
		c2.674,0.977,4.941,2.393,6.811,4.249c1.863,1.855,3.307,4.088,4.328,6.691c1.017,2.604,1.53,5.503,1.53,8.694
		c0,4.687-1.145,8.726-3.432,12.11c-2.288,3.387-5.717,5.798-10.292,7.23l15.096,27.741h-15.518l-13.725-26.277h-13.194
		L479.906,127.786L479.906,127.786z M497.85,90.666c2.674,0,4.785-0.665,6.334-2.001c1.547-1.333,2.323-3.239,2.323-5.717v-4.493
		c0-2.476-0.776-4.361-2.323-5.667c-1.549-1.3-3.66-1.952-6.334-1.952h-17.945v19.829L497.85,90.666L497.85,90.666z"/>
</g>
<path fill="#0068FA" d="M52.643,116.104c-2.478,0-4.904-0.451-7.214-1.344l-4.707-1.809C17.561,104.042,2,81.385,2,56.573V22.101
	c-0.035-5.152,2.995-9.909,7.722-12.076c0.035-0.017,0.071-0.033,0.108-0.048C23.125,4.172,37.227,1.23,51.741,1.23l0.901,0.004
	l0.901-0.004c14.516,0,28.616,2.942,41.911,8.747c0.036,0.016,0.07,0.031,0.106,0.048c4.727,2.166,7.758,6.922,7.725,12.119v34.429
	c0,24.812-15.561,47.468-38.721,56.378l-4.715,1.813C57.547,115.653,55.119,116.104,52.643,116.104z M15.121,21.851
	c-0.075,0.042-0.122,0.121-0.121,0.205v34.517c0,19.472,12.212,37.253,30.389,44.246l4.711,1.811
	c1.641,0.635,3.457,0.629,5.083,0.002l4.719-1.813c18.175-6.992,30.387-24.773,30.387-44.245V22.101
	c0-0.125-0.046-0.207-0.122-0.249c-11.618-5.058-23.938-7.622-36.62-7.622l-0.843,0.003c-0.04,0.001-0.079,0.001-0.119,0
	L51.74,14.23C39.061,14.23,26.74,16.794,15.121,21.851z"/>
<g transform="matrix(2,0,0,2,0,0)">
	<path fill="#A7D3F5" d="M64.851,23.889c-5.508-2.304-11.426-3.464-17.395-3.409c-5.971-0.055-11.889,1.107-17.397,3.409
		c-1.645,0.711-2.713,2.326-2.72,4.119v13.309c0.142,9.76,6.323,18.406,15.512,21.696l1.954,0.73c1.712,0.628,3.592,0.628,5.304,0
		l1.951-0.73c9.189-3.289,15.374-11.937,15.514-21.696V28.008C67.566,26.215,66.496,24.598,64.851,23.889z"/>
</g>
<g>
	<defs>
		<rect id="SVGID_1_" x="83.978" y="-296.388" width="521.864" height="521.863"/>
	</defs>
	<clipPath id="SVGID_2_">
		<use xlink:href="#SVGID_1_"  overflow="visible"/>
	</clipPath>
	<path clip-path="url(#SVGID_2_)" fill="#FFFFFF" d="M192.523,5.227h-14.151c-2.202,0-3.36,1.333-3.36,3.415v5.273
		c0,1.969,1.333,2.895,3.244,3.417c4.807,1.333,5.734,1.623,10.369,2.955c3.358,0.983,6.024,2.665,6.024,6.315v6.995
		c0,3.71-2.666,6.43-6.371,6.43h-16.202l0.985-3.763h14.173c2.202,0,3.361-1.274,3.361-3.359v-5.664
		c0-1.915-0.987-2.783-3.245-3.419c-4.518-1.274-5.965-1.68-10.311-2.896c-3.476-0.987-6.082-2.724-6.082-6.257V7.949
		c0-3.766,2.721-6.431,6.429-6.431h16.178L192.523,5.227z"/>
</g>
<g>
	<defs>
		<rect id="SVGID_3_" x="83.978" y="-296.388" width="516.531" height="516.53"/>
	</defs>
	<clipPath id="SVGID_4_">
		<use xlink:href="#SVGID_3_"  overflow="visible"/>
	</clipPath>
	<rect x="197.858" y="12.528" clip-path="url(#SVGID_4_)" fill="#FFFFFF" width="3.899" height="24.062"/>
</g>
<g>
	<defs>
		<rect id="SVGID_5_" x="83.978" y="-296.388" width="521.864" height="521.863"/>
	</defs>
	<clipPath id="SVGID_6_">
		<use xlink:href="#SVGID_5_"  overflow="visible"/>
	</clipPath>
	<path clip-path="url(#SVGID_6_)" fill="#FFFFFF" d="M232.683,40.026v-28.06h3.883v2.259c3.243-1.624,7.761-2.84,10.659-2.84
		c3.879,0,6.313,2.549,6.313,6.317v22.324h-3.939V18.57c0-2.2-1.159-3.36-3.36-3.36c-1.563,0-4.171,0.695-6.254,1.449
		c-1.971,0.639-3.361,1.563-3.361,3.475v19.894L232.683,40.026L232.683,40.026z"/>
</g>
<g>
	<defs>
		<rect id="SVGID_7_" x="83.978" y="-296.388" width="521.864" height="521.863"/>
	</defs>
	<clipPath id="SVGID_8_">
		<use xlink:href="#SVGID_7_"  overflow="visible"/>
	</clipPath>
	<path clip-path="url(#SVGID_8_)" fill="#FFFFFF" d="M281.771,11.954h4.46V2.605l3.938-1.093v10.442h6.951l-1.265,3.768h-5.687
		v17.413c0,2.084,1.272,3.417,3.362,3.417h3.589v3.475h-4.634c-3.593,0-6.256-2.665-6.256-6.313V15.72h-4.46V11.954L281.771,11.954z
		"/>
</g>
<g>
	<defs>
		<rect id="SVGID_9_" x="83.978" y="-296.388" width="521.864" height="521.863"/>
	</defs>
	<clipPath id="SVGID_10_">
		<use xlink:href="#SVGID_9_"  overflow="visible"/>
	</clipPath>
	<path clip-path="url(#SVGID_10_)" fill="#FFFFFF" d="M321.799,11.956V40.03h-3.885v-2.259c-3.246,1.623-7.764,2.84-10.665,2.84
		c-3.883,0-6.317-2.549-6.317-6.316V11.955h3.941v21.47c0,2.201,1.158,3.36,3.362,3.36c1.564,0,4.174-0.697,6.26-1.449
		c1.969-0.639,3.361-1.565,3.361-3.475V11.954h3.942V11.956z"/>
</g>
<g>
	<defs>
		<rect id="SVGID_11_" x="83.978" y="-296.388" width="521.864" height="521.863"/>
	</defs>
	<clipPath id="SVGID_12_">
		<use xlink:href="#SVGID_11_"  overflow="visible"/>
	</clipPath>
	<path clip-path="url(#SVGID_12_)" fill="#FFFFFF" d="M326.242,40.023V18.387c0-3.763,2.721-6.428,6.369-6.428h10.797l-0.986,3.765
		h-8.769c-2.085,0-3.356,1.274-3.356,3.358v20.941H326.242z"/>
</g>
<g>
	<defs>
		<rect id="SVGID_13_" x="83.978" y="-296.388" width="521.864" height="521.863"/>
	</defs>
	<clipPath id="SVGID_14_">
		<use xlink:href="#SVGID_13_"  overflow="visible"/>
	</clipPath>
	<path clip-path="url(#SVGID_14_)" fill="#FFFFFF" d="M278.767,18.389c-0.004-3.751-2.709-6.41-6.341-6.428v-0.004l-8.256,0.001
		c-3.65,0-6.256,2.665-6.256,6.429l-0.008,15.901c0,3.766,2.434,6.314,6.315,6.314c2.902,0,7.423-1.216,10.667-2.838v2.259h3.88
		L278.767,18.389z M271.471,35.332c-2.086,0.751-4.696,1.449-6.263,1.449c-2.201,0-3.36-1.159-3.36-3.359V19.023
		c0.025-2.05,1.3-3.298,3.364-3.298h1.678v0.002l4.462-0.001c2.085,0,3.474,1.274,3.474,3.361l0.006,12.77
		C274.83,33.769,273.439,34.695,271.471,35.332"/>
</g>
<g>
	<defs>
		<rect id="SVGID_15_" x="83.978" y="-296.388" width="521.864" height="521.863"/>
	</defs>
	<clipPath id="SVGID_16_">
		<use xlink:href="#SVGID_15_"  overflow="visible"/>
	</clipPath>
	<path clip-path="url(#SVGID_16_)" fill="#FFFFFF" d="M228.286,18.394c0-3.751-2.706-6.409-6.34-6.428v-0.005l-8.256,0.002
		c-3.648,0-6.255,2.666-6.255,6.429l-0.008,15.901c0,3.766,2.433,6.316,6.315,6.316c2.902,0,7.423-1.216,10.666-2.839v6.462
		c0,2.085-1.102,3.359-3.188,3.359h-10.819l0.967,3.476h9.562c4.231,0,7.357-1.795,7.357-6.314V18.394z M224.351,31.859
		c0,1.914-1.39,2.839-3.358,3.477c-2.087,0.751-4.698,1.45-6.264,1.45c-2.203,0-3.361-1.16-3.361-3.36V19.03
		c0.024-2.049,1.3-3.302,3.366-3.302h1.678v0.003h4.46c2.086,0,3.477,1.275,3.477,3.361L224.351,31.859z"/>
</g>
<g>
	<defs>
		<rect id="SVGID_17_" x="83.978" y="-296.388" width="521.864" height="521.863"/>
	</defs>
	<clipPath id="SVGID_18_">
		<use xlink:href="#SVGID_17_"  overflow="visible"/>
	</clipPath>
	<path clip-path="url(#SVGID_18_)" fill="#FFFFFF" d="M498.013,40.026v-28.06h3.881v2.259c3.244-1.624,7.759-2.84,10.658-2.84
		c3.879,0,6.313,2.549,6.313,6.317v22.324h-3.938V18.57c0-2.2-1.158-3.36-3.36-3.36c-1.564,0-4.17,0.695-6.258,1.449
		c-1.969,0.639-3.358,1.563-3.358,3.475v19.894L498.013,40.026L498.013,40.026z"/>
</g>
<g>
	<defs>
		<rect id="SVGID_19_" x="83.978" y="-296.388" width="521.864" height="521.863"/>
	</defs>
	<clipPath id="SVGID_20_">
		<use xlink:href="#SVGID_19_"  overflow="visible"/>
	</clipPath>
	<path clip-path="url(#SVGID_20_)" fill="#FFFFFF" d="M417.829,11.956V40.03h-3.883v-2.259c-3.245,1.623-7.768,2.84-10.667,2.84
		c-3.884,0-6.314-2.549-6.314-6.316V11.955h3.938v21.47c0,2.201,1.157,3.36,3.362,3.36c1.564,0,4.176-0.697,6.263-1.449
		c1.97-0.639,3.36-1.565,3.36-3.475V11.954h3.941V11.956z"/>
</g>
<g>
	<defs>
		<rect id="SVGID_21_" x="83.978" y="-296.388" width="521.864" height="521.863"/>
	</defs>
	<clipPath id="SVGID_22_">
		<use xlink:href="#SVGID_21_"  overflow="visible"/>
	</clipPath>
	<path clip-path="url(#SVGID_22_)" fill="#FFFFFF" d="M376.281,40.023V18.387c0-3.763,2.72-6.428,6.37-6.428h10.799l-0.984,3.765
		h-8.771c-2.084,0-3.359,1.274-3.359,3.358v20.941H376.281z"/>
</g>
<g>
	<defs>
		<rect id="SVGID_23_" x="83.978" y="-296.388" width="521.864" height="521.863"/>
	</defs>
	<clipPath id="SVGID_24_">
		<use xlink:href="#SVGID_23_"  overflow="visible"/>
	</clipPath>
	<path clip-path="url(#SVGID_24_)" fill="#FFFFFF" d="M443.387,18.383c0-3.764-2.712-6.43-6.363-6.43h-8.256l-0.001,0.005
		c-3.632,0.018-6.337,2.677-6.337,6.428l-0.002,32.681h4.04l0.016-13.291c3.014,1.618,7.636,2.831,10.581,2.831
		c4.056,0,6.317-2.549,6.317-6.316L443.387,18.383z M439.343,32.726c0,2.55-0.596,4.172-3.261,4.172
		c-1.563,0-4.168-0.695-6.257-1.448c-1.897-0.67-3.247-1.514-3.342-3.289V19.082c0-2.085,1.272-3.36,3.36-3.36h4.46v-0.002h1.68
		c2.084,0,3.357,1.274,3.357,3.359v13.647H439.343z"/>
</g>
<g>
	<defs>
		<rect id="SVGID_25_" x="83.978" y="-296.388" width="521.864" height="521.863"/>
	</defs>
	<clipPath id="SVGID_26_">
		<use xlink:href="#SVGID_25_"  overflow="visible"/>
	</clipPath>
	<path clip-path="url(#SVGID_26_)" fill="#FFFFFF" d="M468.697,18.383c0-3.764-2.713-6.43-6.362-6.43h-8.257l-0.001,0.005
		c-3.633,0.018-6.337,2.677-6.337,6.428l-0.001,32.681h4.038l0.018-13.291c3.013,1.618,7.635,2.831,10.582,2.831
		c4.058,0,6.314-2.549,6.314-6.316L468.697,18.383z M464.653,32.726c0,2.55-0.596,4.172-3.26,4.172c-1.564,0-4.17-0.695-6.258-1.448
		c-1.898-0.67-3.247-1.514-3.341-3.289V19.082c0-2.085,1.273-3.36,3.359-3.36h4.461v-0.002h1.678c2.084,0,3.357,1.274,3.357,3.359
		v13.647H464.653z"/>
</g>
<g>
	<defs>
		<rect id="SVGID_27_" x="83.978" y="-296.388" width="521.864" height="521.863"/>
	</defs>
	<clipPath id="SVGID_28_">
		<use xlink:href="#SVGID_27_"  overflow="visible"/>
	</clipPath>
	<path clip-path="url(#SVGID_28_)" fill="#FFFFFF" d="M368.121,25.445v7.456c0,2.084-1.274,3.36-3.361,3.36l-10.189,0.001
		c-2.084,0-3.357-1.274-3.357-3.358l0.015-24.258c0-2.087,1.273-3.429,3.358-3.429h14.17l1.042-3.7l-16.289,0.004
		c-3.631,0.018-6.335,2.676-6.335,6.428V33.6c0,3.761,2.709,6.428,6.357,6.428h12.308v-0.004c3.634-0.02,6.338-2.677,6.338-6.428
		l0.002-10.051L368.121,25.445z"/>
</g>
<g>
	<defs>
		<rect id="SVGID_29_" x="83.978" y="-296.388" width="521.864" height="521.863"/>
	</defs>
	<clipPath id="SVGID_30_">
		<use xlink:href="#SVGID_29_"  overflow="visible"/>
	</clipPath>
	<path clip-path="url(#SVGID_30_)" fill="#FFFFFF" d="M487.587,11.959l-8.258-0.001v0.004c-3.634,0.018-6.338,2.677-6.34,6.427
		v15.318c0,4.518,3.128,6.313,7.356,6.313h11.249l-0.966-3.477h-10.573c-2.086,0-3.13-1.274-3.13-3.357v-3.981l10.576-0.002
		c3.633-0.021,6.338-2.678,6.34-6.429v-4.385C493.845,14.624,491.237,11.959,487.587,11.959 M489.904,22.079
		c0,2.084-1.392,3.358-3.477,3.358l-9.499,0.002l0.001-6.354c0-2.086,1.393-3.36,3.477-3.36l6.141-0.002
		c2.063,0,3.34,1.252,3.364,3.303L489.904,22.079z"/>
</g>
<g>
	<defs>
		<rect id="SVGID_31_" x="102.164" y="-239.473" width="429.587" height="429.586"/>
	</defs>
	<clipPath id="SVGID_32_">
		<use xlink:href="#SVGID_31_"  overflow="visible"/>
	</clipPath>
</g>
</svg>
