<svg xmlns="http://www.w3.org/2000/svg" version="1.1" xmlns:xlink="http://www.w3.org/1999/xlink" xmlns:svgjs="http://svgjs.com/svgjs" viewBox="0 0 40 40" width="40" height="40"><title>Exported from Streamline App (https://app.streamlineicons.com)</title><g transform="matrix(1.6666666666666667,0,0,1.6666666666666667,0,0)"><path d="M 16,9.5l-4.07,5.426c-0.254,0.339-0.735,0.407-1.074,0.153c-0.029-0.022-0.056-0.045-0.081-0.07l-2.442-2.443 " stroke="#000000" fill="none" stroke-width="1" stroke-linecap="round" stroke-linejoin="round"></path><path d="M 10.7,1.121c0.575-0.718,1.622-0.834,2.34-0.26c0.096,0.077,0.183,0.164,0.26,0.26l1.545,1.923 c0.356,0.443,0.914,0.674,1.479,0.612l2.452-0.267c0.915-0.098,1.737,0.565,1.834,1.481c0.013,0.118,0.013,0.238,0,0.356 l-0.267,2.451c-0.061,0.565,0.17,1.123,0.613,1.479l1.922,1.544c0.718,0.575,0.834,1.624,0.258,2.342 c-0.076,0.095-0.163,0.182-0.258,0.258l-1.922,1.545c-0.443,0.356-0.674,0.913-0.613,1.478l0.267,2.452 c0.1,0.914-0.56,1.736-1.474,1.836c-0.12,0.013-0.241,0.013-0.362,0l-2.452-0.267c-0.565-0.061-1.123,0.17-1.479,0.613l-1.543,1.92 c-0.575,0.718-1.622,0.834-2.34,0.26c-0.096-0.077-0.183-0.164-0.26-0.26l-1.543-1.922c-0.356-0.443-0.914-0.674-1.479-0.613 l-2.452,0.267c-0.914,0.1-1.736-0.56-1.836-1.474c-0.013-0.12-0.013-0.241,0-0.362l0.267-2.452c0.061-0.565-0.17-1.122-0.613-1.478 L1.122,13.3c-0.718-0.575-0.834-1.624-0.258-2.342c0.076-0.095,0.163-0.182,0.258-0.258l1.922-1.544 C3.487,8.8,3.718,8.242,3.657,7.677L3.39,5.226C3.291,4.311,3.952,3.488,4.868,3.389c0.119-0.013,0.239-0.013,0.358,0l2.452,0.267 c0.565,0.062,1.123-0.169,1.479-0.612L10.7,1.121z" stroke="#000000" fill="none" stroke-width="1" stroke-linecap="round" stroke-linejoin="round"></path></g></svg>