<svg xmlns="http://www.w3.org/2000/svg" viewBox="0 0 24 24" height="24" width="24" id="Gesture-Swipe-Horizontal-Right-2--Streamline-Streamline--3.0.svg"><desc>Gesture Swipe Horizontal Right 2 Streamline Icon: https://streamlinehq.com</desc><defs></defs><title>gesture-swipe-horizontal-right-2</title><path d="m20.489 11.501 3.018 -0.5 -0.518 -3" fill="none" stroke="#000000" stroke-linecap="round" stroke-linejoin="round" stroke-width="1"></path><path d="M6.47 8.089A11.928 11.928 0 0 0 0.507 10.98" fill="none" stroke="#000000" stroke-linecap="round" stroke-linejoin="round" stroke-width="1"></path><path d="M23.507 11a11.847 11.847 0 0 0 -5.993 -2.91" fill="none" stroke="#000000" stroke-linecap="round" stroke-linejoin="round" stroke-width="1"></path><path d="M10.507 6.482a1 1 0 0 1 2 0v4.754l3.92 1.17a1.28 1.28 0 0 1 0.893 1.519c-0.13 0.564 -0.746 4 -0.849 4.576h-6.12L7.29 13.912c-1.215 -1.858 1.836 -2.5 3.217 0.589Z" fill="none" stroke="#000000" stroke-linecap="round" stroke-linejoin="round" stroke-width="1"></path></svg>