<svg xmlns="http://www.w3.org/2000/svg" version="1.1" xmlns:xlink="http://www.w3.org/1999/xlink" xmlns:svgjs="http://svgjs.com/svgjs" viewBox="0 0 40 40" width="40" height="40"><title>Exported from Streamline App (https://app.streamlineicons.com)</title><g transform="matrix(1.6666666666666667,0,0,1.6666666666666667,0,0)"><path d="M 2.504,3.5h19c1.105,0,2,0.895,2,2v13c0,1.105-0.895,2-2,2h-19c-1.105,0-2-0.895-2-2v-13 C0.504,4.395,1.399,3.5,2.504,3.5z " stroke="#000000" fill="none" stroke-width="1" stroke-linecap="round" stroke-linejoin="round"></path><path d="M 4.957,10h1.281L6.6,13.6c0.025,0.246,0.245,0.426,0.491,0.401 c0.156-0.016,0.292-0.112,0.359-0.253L9.3,9.891 " stroke="#000000" fill="none" stroke-width="1" stroke-linecap="round" stroke-linejoin="round"></path><path d="M 11.113,9.969l-0.812,4.062 " stroke="#000000" fill="none" stroke-width="1" stroke-linecap="round" stroke-linejoin="round"></path><path d="M 14.832,9.922c0,0-1.375-0.36-1.844,0.422 s0.266,1.281,0.75,1.578s1.016,0.75,0.875,1.281s-0.734,1.313-2.3,0.766 " stroke="#000000" fill="none" stroke-width="1" stroke-linecap="round" stroke-linejoin="round"></path><path d="M 16,14.031l1.88-3.789 c0.107-0.216,0.369-0.304,0.584-0.197c0.137,0.068,0.228,0.202,0.241,0.355l0.3,3.569 " stroke="#000000" fill="none" stroke-width="1" stroke-linecap="round" stroke-linejoin="round"></path><path d="M 16.598,12.828h2.328" stroke="#000000" fill="none" stroke-width="1" stroke-linecap="round" stroke-linejoin="round"></path></g></svg>