<svg xmlns="http://www.w3.org/2000/svg" version="1.1" xmlns:xlink="http://www.w3.org/1999/xlink" xmlns:svgjs="http://svgjs.com/svgjs" viewBox="0 0 40 40" width="40" height="40"><title>Exported from Streamline App (https://app.streamlineicons.com)</title><g transform="matrix(1.6666666666666667,0,0,1.6666666666666667,0,0)"><path d="M 8.5,11.5c0,0.552,0.448,1,1,1h2V16l3.5-3.5h7.5c0.552,0,1-0.448,1-1v-10c0-0.552-0.448-1-1-1h-13 c-0.552,0-1,0.448-1,1V11.5z " stroke="#000000" fill="none" stroke-width="1" stroke-linecap="round" stroke-linejoin="round"></path><path d="M 3.5,8c1.243,0,2.25,1.007,2.25,2.25S4.743,12.5,3.5,12.5s-2.25-1.007-2.25-2.25S2.257,8,3.5,8z " stroke="#000000" fill="none" stroke-width="1" stroke-linecap="round" stroke-linejoin="round"></path><path d="M 3.5,13.5c-1.657,0-3,1.343-3,3v2H2l0.5,5h2l0.5-5h1.5v-2C6.5,14.843,5.157,13.5,3.5,13.5z " stroke="#000000" fill="none" stroke-width="1" stroke-linecap="round" stroke-linejoin="round"></path><path d="M 16.5,10V6 " stroke="#000000" fill="none" stroke-width="1" stroke-linecap="round" stroke-linejoin="round"></path><path d="M 16.25,3.75 C16.25,3.888,16.362,4,16.5,4s0.25-0.112,0.25-0.25 " stroke="#000000" fill="none" stroke-width="1" stroke-linecap="round" stroke-linejoin="round"></path><path d="M 16.5,3.5c-0.138,0-0.25,0.112-0.25,0.25 " stroke="#000000" fill="none" stroke-width="1" stroke-linecap="round" stroke-linejoin="round"></path><path d="M 16.75,3.75 c0-0.138-0.112-0.25-0.25-0.25" stroke="#000000" fill="none" stroke-width="1" stroke-linecap="round" stroke-linejoin="round"></path></g></svg>