<svg xmlns="http://www.w3.org/2000/svg" version="1.1" xmlns:xlink="http://www.w3.org/1999/xlink" xmlns:svgjs="http://svgjs.com/svgjs" viewBox="0 0 40 40" width="40" height="40"><title>Exported from Streamline App (https://app.streamlineicons.com)</title><g transform="matrix(1.6666666666666667,0,0,1.6666666666666667,0,0)"><path d="M 20.513,4.912L6.846,10.857l-2.793-1.4C3.921,9.391,3.767,9.386,3.632,9.444l-2.608,1.122 c-0.254,0.109-0.371,0.403-0.262,0.657c0.025,0.058,0.061,0.111,0.106,0.156l3.744,3.745c0.142,0.142,0.354,0.185,0.54,0.11 l7.194-2.877l-2.553,6.808c-0.097,0.259,0.034,0.547,0.293,0.644c0.13,0.049,0.274,0.041,0.398-0.021l2.716-1.357 c0.096-0.048,0.175-0.127,0.223-0.223l3.926-7.851l4.7-1.75c1.029-0.403,1.536-1.563,1.133-2.591 C22.78,4.987,21.62,4.48,20.591,4.882c-0.024,0.009-0.048,0.019-0.072,0.03L20.513,4.912z " stroke="#000000" fill="none" stroke-width="1" stroke-linecap="round" stroke-linejoin="round"></path><path d="M 16.017,6.867L9.551,4.2 c-0.122-0.051-0.26-0.051-0.382,0L6.78,5.19C6.525,5.296,6.404,5.588,6.509,5.843C6.56,5.966,6.657,6.063,6.78,6.114l5.62,2.325" stroke="#000000" fill="none" stroke-width="1" stroke-linecap="round" stroke-linejoin="round"></path></g></svg>